<?xml version="1.0" encoding="utf-8"?>
<!-- Generator: Adobe Illustrator 21.1.0, SVG Export Plug-In . SVG Version: 6.00 Build 0)  -->
<svg version="1.1" id="Icon_Set" xmlns="http://www.w3.org/2000/svg" xmlns:xlink="http://www.w3.org/1999/xlink" x="0px" y="0px"
	 viewBox="0 0 64 64" style="enable-background:new 0 0 64 64;" xml:space="preserve">
<style type="text/css">
	.st0{fill:#263238;}
	.st1{fill:#FFD740;}
	.st2{fill:#FF5252;}
	.st3{fill:#40C4FF;}
	.st4{fill:#4DB6AC;}
	.st5{fill:#FFFFFF;}
	.st6{fill:#FFD345;}
</style>
<g>
	<g>
		<path class="st1" d="M58.5,47.5h-7.25L51.5,48L49,53.5h9.5c0.552,0,1-0.448,1-1v-4C59.5,47.948,59.052,47.5,58.5,47.5z"/>
		<path class="st0" d="M58.5,54H49c-0.17,0-0.328-0.086-0.42-0.229c-0.093-0.143-0.105-0.322-0.035-0.478l2.401-5.282l-0.144-0.287
			c-0.077-0.155-0.069-0.339,0.021-0.486C50.916,47.09,51.077,47,51.25,47h7.25c0.827,0,1.5,0.673,1.5,1.5v4
			C60,53.327,59.327,54,58.5,54z M49.776,53H58.5c0.275,0,0.5-0.225,0.5-0.5v-4c0-0.275-0.225-0.5-0.5-0.5H52
			c0,0.07-0.015,0.141-0.045,0.207L49.776,53z"/>
	</g>
	<g>
		<path class="st1" d="M48.429,47.5H45.5c-0.552,0-1,0.448-1,1v4c0,0.552,0.448,1,1,1H49l0.5-4.5L48.429,47.5z"/>
		<path class="st0" d="M49,54h-3.5c-0.827,0-1.5-0.673-1.5-1.5v-4c0-0.827,0.673-1.5,1.5-1.5h2.929c0.161,0,0.313,0.078,0.407,0.209
			l1.071,1.5c0.071,0.101,0.104,0.224,0.09,0.347l-0.5,4.5C49.469,53.809,49.255,54,49,54z M45.5,48c-0.275,0-0.5,0.225-0.5,0.5v4
			c0,0.275,0.225,0.5,0.5,0.5h3.053l0.43-3.865L48.172,48H45.5z"/>
	</g>
	<g>
		<path class="st1" d="M47,45.5l1-4h-2.5c-0.552,0-1,0.448-1,1v4c0,0.552,0.448,1,1,1h2.929L47,45.5z"/>
		<path class="st0" d="M48.429,48H45.5c-0.827,0-1.5-0.673-1.5-1.5v-4c0-0.827,0.673-1.5,1.5-1.5H48c0.154,0,0.3,0.071,0.395,0.192
			s0.128,0.279,0.091,0.429l-0.944,3.776l1.295,1.812c0.108,0.152,0.123,0.354,0.037,0.52C48.788,47.896,48.616,48,48.429,48z
			 M45.5,42c-0.275,0-0.5,0.225-0.5,0.5v4c0,0.275,0.225,0.5,0.5,0.5h1.957l-0.864-1.209c-0.085-0.119-0.113-0.271-0.078-0.412
			L47.359,42H45.5z"/>
	</g>
	<g>
		<path class="st1" d="M58.5,41.5h-7L50,45l1.25,2.5h7.25c0.552,0,1-0.448,1-1v-4C59.5,41.948,59.052,41.5,58.5,41.5z"/>
		<path class="st0" d="M58.5,48h-7.25c-0.189,0-0.362-0.107-0.447-0.276l-1.25-2.5c-0.065-0.132-0.07-0.285-0.013-0.421l1.5-3.5
			C51.119,41.119,51.3,41,51.5,41h7c0.827,0,1.5,0.673,1.5,1.5v4C60,47.327,59.327,48,58.5,48z M51.559,47H58.5
			c0.275,0,0.5-0.225,0.5-0.5v-4c0-0.275-0.225-0.5-0.5-0.5h-6.67l-1.279,2.983L51.559,47z"/>
	</g>
	<g>
		<path class="st0" d="M52,22H4c-0.276,0-0.5-0.224-0.5-0.5V16c0-1.654,1.346-3,3-3h43c1.654,0,3,1.346,3,3v5.5
			C52.5,21.776,52.276,22,52,22z M4.5,21h47v-5c0-1.103-0.897-2-2-2h-43c-1.103,0-2,0.897-2,2V21z"/>
	</g>
	<g>
		<path class="st0" d="M8.5,19.5c-1.103,0-2-0.897-2-2s0.897-2,2-2s2,0.897,2,2S9.603,19.5,8.5,19.5z M8.5,16.5
			c-0.551,0-1,0.448-1,1s0.449,1,1,1s1-0.448,1-1S9.051,16.5,8.5,16.5z"/>
	</g>
	<g>
		<path class="st0" d="M13.5,19.5c-1.103,0-2-0.897-2-2s0.897-2,2-2s2,0.897,2,2S14.603,19.5,13.5,19.5z M13.5,16.5
			c-0.551,0-1,0.448-1,1s0.449,1,1,1s1-0.448,1-1S14.051,16.5,13.5,16.5z"/>
	</g>
	<g>
		<path class="st0" d="M53,7h-4c-0.276,0-0.5-0.224-0.5-0.5S48.724,6,49,6h4c0.276,0,0.5,0.224,0.5,0.5S53.276,7,53,7z"/>
	</g>
	<g>
		<path class="st0" d="M51,9c-0.276,0-0.5-0.224-0.5-0.5v-4C50.5,4.224,50.724,4,51,4s0.5,0.224,0.5,0.5v4C51.5,8.776,51.276,9,51,9
			z"/>
	</g>
	<g>
		<path class="st0" d="M60,13.5h-4c-0.276,0-0.5-0.224-0.5-0.5s0.224-0.5,0.5-0.5h4c0.276,0,0.5,0.224,0.5,0.5S60.276,13.5,60,13.5z
			"/>
	</g>
	<g>
		<path class="st0" d="M58,15.5c-0.276,0-0.5-0.224-0.5-0.5v-4c0-0.276,0.224-0.5,0.5-0.5s0.5,0.224,0.5,0.5v4
			C58.5,15.276,58.276,15.5,58,15.5z"/>
	</g>
	<g>
		<path class="st0" d="M40,58h-2c-0.276,0-0.5-0.224-0.5-0.5S37.724,57,38,57h2c0.276,0,0.5,0.224,0.5,0.5S40.276,58,40,58z"/>
	</g>
	<g>
		<path class="st0" d="M36,58H16c-0.276,0-0.5-0.224-0.5-0.5S15.724,57,16,57h20c0.276,0,0.5,0.224,0.5,0.5S36.276,58,36,58z"/>
	</g>
	<g>
		<path class="st0" d="M13,10h-2c-0.276,0-0.5-0.224-0.5-0.5S10.724,9,11,9h2c0.276,0,0.5,0.224,0.5,0.5S13.276,10,13,10z"/>
	</g>
	<g>
		<path class="st0" d="M35,10H15c-0.276,0-0.5-0.224-0.5-0.5S14.724,9,15,9h20c0.276,0,0.5,0.224,0.5,0.5S35.276,10,35,10z"/>
	</g>
	<g>
		<path class="st0" d="M42.5,54h-36c-1.654,0-3-1.346-3-3V21.5C3.5,21.224,3.724,21,4,21h48c0.276,0,0.5,0.224,0.5,0.5v18
			c0,0.276-0.224,0.5-0.5,0.5s-0.5-0.224-0.5-0.5V22h-47v29c0,1.103,0.897,2,2,2h36c0.276,0,0.5,0.224,0.5,0.5S42.776,54,42.5,54z"
			/>
	</g>
	<g>
		<path class="st0" d="M56.5,51H53c-0.276,0-0.5-0.224-0.5-0.5S52.724,50,53,50h3.5c0.276,0,0.5,0.224,0.5,0.5S56.776,51,56.5,51z"
			/>
	</g>
	<g>
		<path class="st1" d="M58.5,59.5h-13c-0.552,0-1-0.448-1-1v-4c0-0.552,0.448-1,1-1h13c0.552,0,1,0.448,1,1v4
			C59.5,59.052,59.052,59.5,58.5,59.5z"/>
		<path class="st0" d="M58.5,60h-13c-0.827,0-1.5-0.673-1.5-1.5v-4c0-0.827,0.673-1.5,1.5-1.5h13c0.827,0,1.5,0.673,1.5,1.5v4
			C60,59.327,59.327,60,58.5,60z M45.5,54c-0.275,0-0.5,0.225-0.5,0.5v4c0,0.275,0.225,0.5,0.5,0.5h13c0.275,0,0.5-0.225,0.5-0.5v-4
			c0-0.275-0.225-0.5-0.5-0.5H45.5z"/>
	</g>
	<g>
		<path class="st0" d="M56.5,57H52c-0.276,0-0.5-0.224-0.5-0.5S51.724,56,52,56h4.5c0.276,0,0.5,0.224,0.5,0.5S56.776,57,56.5,57z"
			/>
	</g>
	<g>
		<path class="st0" d="M56.5,45H53c-0.276,0-0.5-0.224-0.5-0.5S52.724,44,53,44h3.5c0.276,0,0.5,0.224,0.5,0.5S56.776,45,56.5,45z"
			/>
	</g>
	<g>
		<circle class="st2" cx="28" cy="37.5" r="12"/>
	</g>
	<g>
		<path class="st5" d="M28.5,40.5h-1c-0.552,0-1-0.448-1-1v-9c0-0.552,0.448-1,1-1h1c0.552,0,1,0.448,1,1v9
			C29.5,40.052,29.052,40.5,28.5,40.5z"/>
		<path class="st0" d="M28.5,41h-1c-0.827,0-1.5-0.673-1.5-1.5v-9c0-0.827,0.673-1.5,1.5-1.5h1c0.827,0,1.5,0.673,1.5,1.5v9
			C30,40.327,29.327,41,28.5,41z M27.5,30c-0.276,0-0.5,0.225-0.5,0.5v9c0,0.275,0.224,0.5,0.5,0.5h1c0.276,0,0.5-0.225,0.5-0.5v-9
			c0-0.275-0.224-0.5-0.5-0.5H27.5z"/>
	</g>
	<g>
		<circle class="st5" cx="28" cy="44" r="1.5"/>
		<path class="st0" d="M28,46c-1.103,0-2-0.897-2-2s0.897-2,2-2s2,0.897,2,2S29.103,46,28,46z M28,43c-0.551,0-1,0.448-1,1
			s0.449,1,1,1s1-0.448,1-1S28.551,43,28,43z"/>
	</g>
</g>
</svg>
