<svg width="1781" height="1430" viewBox="0 0 1781 1430" fill="none" xmlns="http://www.w3.org/2000/svg">
<g clip-path="url(#clip0)">
<path fill-rule="evenodd" clip-rule="evenodd" d="M1242.19 106.117C1108.98 163.591 957.214 291.277 820.366 286.953C683.514 282.626 561.578 146.291 438.844 109.255C316.108 72.2165 192.57 134.475 133.462 238.455C74.3543 342.433 79.669 488.131 137.013 573.067C194.354 657.998 303.721 682.169 292.117 725.855C280.512 769.543 147.938 832.752 73.829 922.679C-0.281637 1012.61 -15.9323 1129.26 14.9863 1226.13C45.909 1323 123.394 1400.09 222.264 1422.85C321.13 1445.61 441.378 1414.04 582.517 1357.64C723.66 1301.25 885.693 1220.02 1080.08 1224.84C1274.47 1229.66 1501.21 1320.52 1634.74 1269.57C1768.27 1218.61 1808.6 1025.83 1762.09 913.399C1715.57 800.972 1582.22 768.895 1558.61 689.062C1535 609.227 1621.14 481.63 1647.12 371.181C1673.09 260.727 1638.91 167.415 1564.49 114.395C1490.07 61.3739 1375.4 48.6392 1242.19 106.117Z" fill="#D1D7CD"/>
<path fill-rule="evenodd" clip-rule="evenodd" d="M0.195682 1117.8C-1.06698 1155.01 4.03568 1191.81 14.989 1226.13C16.7743 1231.73 18.725 1237.25 20.8157 1242.71C41.4037 1245.88 62.289 1248.21 81.8623 1251.53C141.149 1261.59 188.412 1280.77 261.012 1306.38C333.612 1331.99 431.553 1364.02 530.342 1377.24L531.169 1377.35C547.966 1371.2 565.082 1364.61 582.517 1357.64C626.537 1340.05 672.59 1320.04 721.026 1300.99C715.589 1297.73 709.994 1294.65 704.43 1291.83C664.254 1271.42 625.804 1264.13 590.508 1258.19C555.205 1252.26 523.053 1247.68 504.422 1236.54C485.789 1225.4 480.674 1207.69 498.781 1200.92C516.893 1194.15 558.224 1198.32 608.886 1208.92C659.545 1219.51 719.537 1236.54 781.662 1253.67C795.214 1257.41 808.872 1261.15 822.424 1264.75C874.437 1248.44 929.081 1235.38 986.713 1228.96C956.62 1223.55 916.696 1221.26 878.488 1214.02C831.678 1205.15 787.442 1188.85 739.957 1166.15C692.468 1143.45 641.728 1114.35 581.894 1098.29C522.062 1082.22 453.14 1079.2 383.989 1092.81C314.838 1106.43 245.462 1136.7 177.014 1145.55C113.485 1153.76 50.765 1143.51 0.195682 1117.8Z" fill="#BDC2BA"/>
<path fill-rule="evenodd" clip-rule="evenodd" d="M1556.6 633.689C1564.11 584.04 1591.17 525.386 1614.91 466.469C1573.62 486.912 1542.02 510.197 1506.04 530.972C1466.21 553.969 1421.02 573.886 1364.44 584.594C1307.87 595.304 1239.92 596.805 1181.5 591.27C1123.08 585.734 1074.19 573.164 1036.71 564.55C999.226 555.934 973.149 551.278 953.827 565.482C934.505 579.684 921.931 612.741 945.445 642.774C968.959 672.806 1028.56 699.812 1110.97 712.617C1193.39 725.424 1298.62 724.025 1381.82 703.832C1449.27 687.462 1502.24 658.741 1556.6 633.689Z" fill="#BDC2BA"/>
<path fill-rule="evenodd" clip-rule="evenodd" d="M106.539 508.25C114.015 532.121 124.215 554.11 137.012 573.067C146.127 586.567 156.559 598.527 167.61 609.279C241.051 595.461 330.056 594.961 418.092 622.573C518.311 654.006 617.268 721.87 677.16 778.442C737.047 835.015 757.868 880.301 758.366 905.507C758.863 930.711 739.04 935.834 679.772 898.503C620.503 861.175 521.79 781.398 431.587 744.821C382.659 724.979 336.238 717.851 292.894 717.655C293.102 720.321 292.862 723.049 292.115 725.855C280.512 769.543 147.939 832.753 73.8269 922.679C65.1416 933.217 57.2736 944.123 50.1763 955.319C140.234 940.117 266.615 909.833 386.586 924.126C516.302 939.585 638.522 1007.15 751.99 1049.69C865.455 1092.24 970.175 1109.75 1088.33 1105.84C1206.5 1101.93 1338.1 1076.6 1464.03 1043C1572.07 1014.18 1675.93 979.281 1771.91 943.135C1769.24 932.755 1765.97 922.793 1762.09 913.402C1724.01 821.355 1627.74 783.166 1581.12 728.538C1484.18 780.893 1398.76 829.003 1307.07 848.526C1211.9 868.795 1109.97 858.265 1033.14 840.767C956.316 823.27 904.591 798.805 827.178 736.23C749.763 673.659 646.66 572.974 531.398 521.475C416.134 469.977 288.708 467.657 190.223 485.819C159.447 491.491 131.502 499.169 106.539 508.25ZM967.033 940.771C956.092 931.226 939.331 927.035 924.584 930.841C909.839 934.642 897.115 946.437 893.854 961.181C890.595 975.929 896.802 993.619 909.58 1005.11C922.362 1016.59 941.711 1021.87 955.912 1016.67C970.116 1011.47 979.168 995.794 981.135 980.503C983.1 965.218 977.976 950.319 967.033 940.771V940.771ZM1074.38 959.453C1097.92 953.055 1129.27 957.711 1164.03 956.934C1198.8 956.159 1236.98 949.951 1282.3 938.311C1327.62 926.673 1380.09 909.599 1427.73 891.439C1475.38 873.278 1518.22 854.033 1546.15 852.171C1574.09 850.309 1587.13 865.827 1591.01 881.069C1594.88 896.311 1589.6 911.275 1565.44 929.578C1541.28 947.883 1498.24 969.531 1454.78 986.106C1411.33 1002.68 1367.46 1014.19 1322.4 1022.58C1277.34 1030.97 1231.09 1036.25 1187.94 1039.12C1144.79 1042 1104.75 1042.48 1077.18 1035.68C1049.6 1028.89 1034.5 1014.82 1034.81 999.063C1035.12 983.307 1050.84 965.854 1074.38 959.453" fill="#BDC2BA"/>
<path fill-rule="evenodd" clip-rule="evenodd" d="M1088.31 1225.1C1280.84 1232.2 1503.08 1319.81 1634.74 1269.57C1768.27 1218.61 1808.6 1025.83 1762.09 913.403C1758.2 904.007 1753.69 895.184 1748.71 886.838C1742.49 890.879 1737.07 896.327 1732.96 903.022C1726.87 883.131 1709.93 868.488 1689.36 865.343C1668.8 862.2 1648.26 871.116 1636.51 888.283C1624.75 905.448 1623.88 927.828 1634.25 945.86C1622.89 930.096 1603.37 922.426 1584.32 926.236C1565.27 930.044 1550.2 944.635 1545.78 963.555C1539.28 934.407 1514.68 912.799 1484.94 910.112C1455.2 907.422 1427.12 924.262 1415.5 951.775C1403.88 979.284 1411.37 1011.15 1434.03 1030.6C1420.99 1025.53 1406.21 1028.1 1395.66 1037.29C1385.1 1046.48 1380.51 1060.76 1383.74 1074.37C1371.22 1055.87 1349.29 1046.06 1327.15 1049.06C1305.01 1052.06 1286.49 1067.34 1279.33 1088.5C1272.17 1109.67 1277.63 1133.06 1293.41 1148.87C1281.63 1137.19 1264.48 1132.74 1248.5 1137.2C1232.53 1141.67 1220.18 1154.37 1216.16 1170.46C1215.01 1156.8 1205.23 1145.43 1191.9 1142.25C1178.57 1139.07 1164.7 1144.8 1157.51 1156.46C1150.31 1168.13 1151.42 1183.09 1160.24 1193.57C1143.23 1185.91 1123.45 1187.78 1108.17 1198.47C1098.72 1205.09 1091.85 1214.49 1088.31 1225.1Z" fill="#EF325A"/>
<path fill-rule="evenodd" clip-rule="evenodd" d="M1188.83 1234.68C1354.02 1258.08 1525.54 1311.24 1634.74 1269.57C1759.85 1221.83 1803.13 1049.6 1769.85 935.591C1758.9 940.815 1751.95 951.989 1752.19 964.222C1749.95 945.526 1737.09 929.817 1719.2 923.939C1701.31 918.061 1681.63 923.077 1668.74 936.809C1655.85 950.533 1652.07 970.482 1659.06 987.971C1649.34 976.99 1634.75 971.623 1620.22 973.686C1605.7 975.746 1593.18 984.962 1586.89 998.214C1584.45 984.035 1573.09 973.073 1558.83 971.131C1544.58 969.19 1530.7 976.711 1524.55 989.723C1518.4 1002.73 1521.4 1018.23 1531.95 1028.01C1522.42 1018.2 1508.18 1014.57 1495.12 1018.64C1482.06 1022.72 1472.41 1033.8 1470.15 1047.29C1467.9 1060.78 1473.43 1074.4 1484.46 1082.49C1465.25 1062.13 1433.68 1059.77 1411.66 1077.07C1389.65 1094.37 1384.47 1125.6 1399.71 1149.08C1395.99 1142 1387.57 1138.82 1380.09 1141.67C1372.62 1144.52 1368.45 1152.49 1370.38 1160.25C1366.25 1146.61 1354.12 1136.94 1339.9 1135.97C1325.68 1134.99 1312.34 1142.91 1306.39 1155.86C1300.44 1168.8 1303.11 1184.08 1313.11 1194.24C1307.06 1188.81 1298.21 1187.86 1291.14 1191.87C1284.07 1195.88 1280.35 1203.96 1281.91 1211.94C1279.7 1202.41 1272.52 1194.82 1263.14 1192.06C1253.76 1189.31 1243.62 1191.82 1236.61 1198.64C1229.6 1205.45 1226.8 1215.52 1229.29 1224.97C1225.74 1217.96 1218.62 1213.46 1210.76 1213.26C1202.9 1213.06 1195.57 1217.19 1191.66 1224.01C1189.76 1227.31 1188.82 1231 1188.83 1234.68ZM1181.52 1197.74C1184.99 1197.74 1187.81 1200.55 1187.81 1204.02C1187.81 1207.5 1184.99 1210.31 1181.52 1210.31C1178.05 1210.31 1175.24 1207.5 1175.24 1204.02C1175.24 1200.55 1178.05 1197.74 1181.52 1197.74V1197.74ZM1379.53 1113.27C1382.82 1113.27 1385.48 1115.93 1385.48 1119.22C1385.48 1122.5 1382.82 1125.16 1379.53 1125.16C1376.25 1125.16 1373.59 1122.5 1373.59 1119.22C1373.59 1115.93 1376.25 1113.27 1379.53 1113.27ZM1138.36 1207.52C1143.6 1207.52 1147.86 1211.77 1147.86 1217.02C1147.86 1222.26 1143.6 1226.51 1138.36 1226.51C1133.11 1226.51 1128.86 1222.26 1128.86 1217.02C1128.86 1211.77 1133.11 1207.52 1138.36 1207.52ZM1162.24 1215.9C1163.71 1215.9 1164.9 1217.09 1164.9 1218.55C1164.9 1220.02 1163.71 1221.21 1162.24 1221.21C1160.78 1221.21 1159.59 1220.02 1159.59 1218.55C1159.59 1217.09 1160.78 1215.9 1162.24 1215.9ZM1200.1 1172.04C1202.26 1172.04 1204.01 1173.79 1204.01 1175.95C1204.01 1178.11 1202.26 1179.86 1200.1 1179.86C1197.94 1179.86 1196.19 1178.11 1196.19 1175.95C1196.19 1173.79 1197.94 1172.04 1200.1 1172.04ZM1341.25 1092.98C1347.29 1092.98 1352.18 1097.88 1352.18 1103.92C1352.18 1109.96 1347.29 1114.86 1341.25 1114.86C1335.21 1114.86 1330.31 1109.96 1330.31 1103.92C1330.31 1097.88 1335.21 1092.98 1341.25 1092.98Z" fill="#BA2B4A"/>
<path fill-rule="evenodd" clip-rule="evenodd" d="M102.48 891.698C92.3056 901.656 82.6469 911.978 73.8269 922.679C-0.282389 1012.61 -15.933 1129.26 14.9896 1226.13C45.9083 1323 123.395 1400.09 222.264 1422.85C321.131 1445.61 441.378 1414.04 582.518 1357.64C600.65 1350.4 619.13 1342.74 637.972 1334.91C633.446 1316.77 622.156 1300.36 605.262 1289.72C573.127 1269.49 530.924 1276.56 507.135 1306.16C518.652 1290.43 517.867 1268.85 505.231 1254C492.595 1239.15 471.422 1234.92 454.048 1243.77C475.736 1225.29 482.083 1194.43 469.447 1168.89C456.81 1143.35 428.426 1129.68 400.579 1135.71C372.728 1141.74 352.548 1165.94 351.612 1194.41C351.512 1177.96 343.724 1162.5 330.562 1152.64C317.403 1142.77 300.38 1139.62 284.56 1144.13C297.071 1127.29 298.95 1104.81 289.412 1086.13C279.874 1067.44 260.566 1055.78 239.586 1056.03C218.61 1056.29 199.587 1068.41 190.504 1087.33C196.27 1070.88 192.627 1052.6 181.003 1039.62C169.378 1026.64 151.611 1021.01 134.63 1024.94C162.794 987.615 157.14 934.842 121.714 904.336C115.74 899.192 109.27 894.986 102.48 891.698Z" fill="#EF325A"/>
<path fill-rule="evenodd" clip-rule="evenodd" d="M68.8515 928.888C-0.960546 1017.93 -15.2285 1131.47 14.9901 1226.13C45.9088 1323 123.395 1400.09 222.265 1422.85C313.262 1443.8 422.371 1418.72 549.215 1370.62C546.582 1355.67 537.951 1341.92 524.442 1333.14C501.393 1318.16 470.891 1322.01 452.286 1342.25C457.866 1335.55 457.055 1325.61 450.458 1319.9C443.859 1314.19 433.907 1314.81 428.071 1321.3C434.378 1308.98 433.61 1294.24 426.063 1282.64C418.518 1271.04 405.342 1264.37 391.527 1265.14C377.714 1265.91 365.367 1274.01 359.159 1286.38C361.658 1277.43 358.089 1267.9 350.326 1262.79C342.562 1257.69 332.391 1258.19 325.169 1264.03C335.563 1247.37 333.773 1225.86 320.771 1211.14C307.771 1196.42 286.647 1191.99 268.83 1200.24C280.755 1177.41 273.703 1149.27 252.422 1134.77C231.138 1120.26 202.366 1123.99 185.481 1143.44C197.339 1129.72 197.607 1109.46 186.113 1095.43C174.619 1081.41 154.698 1077.69 138.922 1086.63C145.01 1069.48 141.261 1050.36 129.135 1036.79C117.014 1023.21 98.4461 1017.33 80.7154 1021.44C97.7648 1003.49 102.081 976.92 91.5861 954.493C86.5328 943.693 78.5381 934.913 68.8515 928.888ZM103.415 905.511C106.501 905.511 109.005 908.015 109.005 911.099C109.005 914.184 106.501 916.685 103.415 916.685C100.331 916.685 97.8301 914.184 97.8301 911.099C97.8301 908.015 100.331 905.511 103.415 905.511ZM571.233 1323.74C577.559 1323.74 582.687 1328.86 582.687 1335.19C582.687 1341.52 577.559 1346.65 571.233 1346.65C564.905 1346.65 559.778 1341.52 559.778 1335.19C559.778 1328.86 564.905 1323.74 571.233 1323.74ZM486.018 1312.42C487.866 1312.42 489.37 1313.93 489.37 1315.77C489.37 1317.63 487.866 1319.13 486.018 1319.13C484.167 1319.13 482.667 1317.63 482.667 1315.77C482.667 1313.93 484.167 1312.42 486.018 1312.42ZM464.853 1267.16C469.445 1267.16 473.166 1270.88 473.166 1275.47C473.166 1280.06 469.445 1283.79 464.853 1283.79C460.262 1283.79 456.541 1280.06 456.541 1275.47C456.541 1270.88 460.262 1267.16 464.853 1267.16ZM114.591 967.532C120.765 967.532 125.766 972.535 125.766 978.707C125.766 984.881 120.765 989.883 114.591 989.883C108.418 989.883 103.415 984.881 103.415 978.707C103.415 972.535 108.418 967.532 114.591 967.532" fill="#BA2B4A"/>
<path fill-rule="evenodd" clip-rule="evenodd" d="M1418.12 1274.34C1501.06 1287.07 1576.71 1291.72 1634.74 1269.57C1741.2 1228.94 1788.42 1098.16 1779.61 989.825C1712.29 954.771 1630.14 950.505 1556.46 984.814C1445.65 1036.42 1389.29 1158.83 1418.12 1274.34Z" fill="#F9BE40"/>
<path fill-rule="evenodd" clip-rule="evenodd" d="M1433.3 1276.59C1510.27 1287.54 1580.26 1290.36 1634.74 1269.57C1726.19 1234.67 1773.92 1133.26 1779.98 1036.7C1767.12 1030.58 1753.8 1025.64 1740.19 1021.89C1740.69 1023.38 1740.97 1024.97 1740.97 1026.62C1740.97 1034.74 1734.38 1041.32 1726.27 1041.32C1718.15 1041.32 1711.57 1034.74 1711.57 1026.62C1711.57 1022.69 1713.11 1019.12 1715.63 1016.48C1663.91 1007.85 1609.55 1015.93 1561.07 1041.81C1519.15 1064.19 1485.85 1097.64 1463.64 1137.17C1464.65 1136.97 1465.7 1136.87 1466.77 1136.87C1475.91 1136.87 1483.31 1144.28 1483.31 1153.41C1483.31 1162.54 1475.91 1169.94 1466.77 1169.94C1460.31 1169.94 1454.71 1166.23 1451.99 1160.82C1436.67 1196.67 1429.91 1236.31 1433.3 1276.59ZM1686.86 1178.93C1688.55 1178.93 1689.92 1180.3 1689.92 1181.99C1689.92 1183.68 1688.55 1185.05 1686.86 1185.05C1685.17 1185.05 1683.8 1183.68 1683.8 1181.99C1683.8 1180.3 1685.17 1178.93 1686.86 1178.93ZM1713.81 1095.22C1715.73 1095.22 1717.28 1096.78 1717.28 1098.69C1717.28 1100.61 1715.73 1102.16 1713.81 1102.16C1711.9 1102.16 1710.34 1100.61 1710.34 1098.69C1710.34 1096.78 1711.9 1095.22 1713.81 1095.22ZM1727.29 1073.58C1731.23 1073.58 1734.43 1076.78 1734.43 1080.73C1734.43 1084.67 1731.23 1087.87 1727.29 1087.87C1723.34 1087.87 1720.14 1084.67 1720.14 1080.73C1720.14 1076.78 1723.34 1073.58 1727.29 1073.58ZM1693.6 1042.96C1695.63 1042.96 1697.27 1044.6 1697.27 1046.63C1697.27 1048.66 1695.63 1050.3 1693.6 1050.3C1691.57 1050.3 1689.93 1048.66 1689.93 1046.63C1689.93 1044.6 1691.57 1042.96 1693.6 1042.96V1042.96ZM1598.87 1261C1599.77 1261 1600.5 1261.73 1600.5 1262.63C1600.5 1263.54 1599.77 1264.27 1598.87 1264.27C1597.97 1264.27 1597.24 1263.54 1597.24 1262.63C1597.24 1261.73 1597.97 1261 1598.87 1261V1261ZM1587.23 1222.21C1589.37 1222.21 1591.11 1223.95 1591.11 1226.09C1591.11 1228.23 1589.37 1229.97 1587.23 1229.97C1585.09 1229.97 1583.35 1228.23 1583.35 1226.09C1583.35 1223.95 1585.09 1222.21 1587.23 1222.21ZM1573.35 1244.26C1579.32 1244.26 1584.17 1249.1 1584.17 1255.08C1584.17 1261.06 1579.32 1265.9 1573.35 1265.9C1567.37 1265.9 1562.53 1261.06 1562.53 1255.08C1562.53 1249.1 1567.37 1244.26 1573.35 1244.26ZM1533.94 1078.89C1536.65 1078.89 1538.84 1081.08 1538.84 1083.78C1538.84 1086.49 1536.65 1088.69 1533.94 1088.69C1531.24 1088.69 1529.04 1086.49 1529.04 1083.78C1529.04 1081.08 1531.24 1078.89 1533.94 1078.89ZM1470.45 1187.1C1472.37 1187.1 1473.92 1188.65 1473.92 1190.56C1473.92 1192.48 1472.37 1194.04 1470.45 1194.04C1468.53 1194.04 1466.98 1192.48 1466.98 1190.56C1466.98 1188.65 1468.53 1187.1 1470.45 1187.1ZM1497.4 1150.75C1500.44 1150.75 1502.91 1153.22 1502.91 1156.26C1502.91 1159.31 1500.44 1161.78 1497.4 1161.78C1494.35 1161.78 1491.89 1159.31 1491.89 1156.26C1491.89 1153.22 1494.35 1150.75 1497.4 1150.75Z" fill="#F99040"/>
<path fill-rule="evenodd" clip-rule="evenodd" d="M1650.4 1262.73C1652.36 1261.76 1654.3 1260.76 1656.22 1259.73L1649.22 1241.69L1673.85 1173.05C1674.45 1171.36 1673.57 1169.5 1671.88 1168.89C1670.19 1168.29 1668.33 1169.17 1667.72 1170.86L1645.63 1232.44L1619.37 1164.8L1640.56 1100.46C1641.13 1098.75 1640.2 1096.9 1638.48 1096.34C1636.77 1095.77 1634.93 1096.7 1634.36 1098.42L1615.66 1155.22L1604.58 1126.69L1604.56 1126.61L1604.53 1126.54L1604.5 1126.47L1583.66 1072.78C1583.01 1071.11 1581.13 1070.27 1579.45 1070.92C1577.78 1071.57 1576.94 1073.45 1577.59 1075.13L1595.82 1122.11L1556.3 1107.17C1554.61 1106.53 1552.73 1107.38 1552.1 1109.07C1551.46 1110.75 1552.32 1112.63 1554 1113.26L1598.99 1130.27L1612.8 1165.86C1612.84 1165.98 1612.89 1166.11 1612.95 1166.24L1629.44 1208.72L1573.84 1189.46C1572.15 1188.88 1570.29 1189.78 1569.71 1191.48C1569.13 1193.17 1570.03 1195.02 1571.73 1195.61L1632.52 1216.67L1650.4 1262.73Z" fill="white"/>
<path fill-rule="evenodd" clip-rule="evenodd" d="M104.187 1350.38C112.899 1350.49 120.021 1343.31 123.695 1326.02C127.367 1308.74 127.595 1281.36 129.084 1251.79C130.571 1222.22 133.319 1190.45 140.241 1158.96C147.157 1127.46 158.243 1096.23 163.9 1070.21C169.559 1044.19 169.784 1023.37 163.448 1010.81C157.113 998.255 144.215 993.956 129.961 998.255C115.703 1002.55 100.088 1015.45 88.2092 1049.62C76.3292 1083.79 68.1839 1139.23 66.5826 1190.41C64.9812 1241.59 69.9252 1288.52 77.5479 1315.68C85.1692 1342.85 95.4746 1350.26 104.187 1350.38Z" fill="#F9BE40"/>
<path fill-rule="evenodd" clip-rule="evenodd" d="M92.7567 1122.07C94.3007 1122.07 95.5501 1123.32 95.5501 1124.87C95.5501 1126.41 94.3007 1127.66 92.7567 1127.66C91.2127 1127.66 89.9634 1126.41 89.9634 1124.87C89.9634 1123.32 91.2127 1122.07 92.7567 1122.07ZM98.5754 1061.3C100.243 1061.3 101.601 1062.66 101.601 1064.33C101.601 1066 100.243 1067.36 98.5754 1067.36C96.9047 1067.36 95.5474 1066 95.5474 1064.33C95.5474 1062.66 96.9047 1061.3 98.5754 1061.3ZM145.838 1093.19C148.025 1093.19 149.797 1094.96 149.797 1097.15C149.797 1099.34 148.025 1101.11 145.838 1101.11C143.653 1101.11 141.882 1099.34 141.882 1097.15C141.882 1094.96 143.653 1093.19 145.838 1093.19ZM142.113 1074.81C143.91 1074.81 145.369 1076.27 145.369 1078.07C145.369 1079.87 143.91 1081.33 142.113 1081.33C140.311 1081.33 138.853 1079.87 138.853 1078.07C138.853 1076.27 140.311 1074.81 142.113 1074.81ZM107.655 1078.3C110.227 1078.3 112.311 1080.39 112.311 1082.96C112.311 1085.53 110.227 1087.62 107.655 1087.62C105.085 1087.62 102.999 1085.53 102.999 1082.96C102.999 1080.39 105.085 1078.3 107.655 1078.3ZM104.186 1350.38C112.895 1350.49 120.021 1343.31 123.695 1326.02C127.369 1308.74 127.594 1281.36 129.083 1251.79C130.57 1222.22 133.318 1190.45 140.241 1158.96C143.25 1145.25 147.046 1131.6 150.846 1118.41C143.321 1104.16 128.694 1095.08 112.587 1094.65C104.273 1094.44 96.2367 1096.54 89.2687 1100.53C91.0047 1100.95 92.2887 1102.52 92.2887 1104.38C92.2887 1106.56 90.5181 1108.33 88.3327 1108.33C86.1461 1108.33 84.3754 1106.56 84.3754 1104.38C84.3754 1104.16 84.3941 1103.95 84.4287 1103.74C79.9594 1107.13 76.1061 1111.39 73.1341 1116.37C69.6434 1140.14 67.3527 1165.77 66.5834 1190.41C64.9794 1241.6 69.9247 1288.52 77.5474 1315.69C85.1727 1342.85 95.4741 1350.27 104.186 1350.38V1350.38ZM129.77 1116.02C132.598 1116.02 134.893 1118.31 134.893 1121.14C134.893 1123.97 132.598 1126.26 129.77 1126.26C126.945 1126.26 124.65 1123.97 124.65 1121.14C124.65 1118.31 126.945 1116.02 129.77 1116.02Z" fill="#F99040"/>
<path fill-rule="evenodd" clip-rule="evenodd" d="M144.9 1345.74C147.914 1367.79 152.973 1374.58 160.78 1374.24C168.586 1373.9 179.142 1366.43 187.477 1344.48C195.809 1322.52 201.917 1286.09 209.61 1249.88C217.305 1213.68 226.582 1177.7 238.578 1143.98C250.566 1110.27 265.28 1078.82 273.425 1055.17C281.569 1031.52 283.154 1015.68 275.461 1004.37C267.768 993.052 250.793 986.262 235.408 990.789C220.02 995.316 206.216 1011.16 194.562 1034.8C182.909 1058.45 173.404 1089.9 164.664 1126.91C155.916 1163.93 147.93 1206.5 144.424 1246.44C140.917 1286.38 141.885 1323.68 144.9 1345.74Z" fill="#F9BE40"/>
<path fill-rule="evenodd" clip-rule="evenodd" d="M202.641 1149.08C203.543 1149.08 204.272 1149.81 204.272 1150.71C204.272 1151.61 203.543 1152.34 202.641 1152.34C201.744 1152.34 201.015 1151.61 201.015 1150.71C201.015 1149.81 201.744 1149.08 202.641 1149.08ZM224.876 1099.96C222.24 1099.96 220.104 1102.1 220.104 1104.73C220.104 1107.37 222.24 1109.5 224.876 1109.5C227.512 1109.5 229.649 1107.37 229.649 1104.73C229.649 1102.1 227.512 1099.96 224.876 1099.96V1099.96ZM200.545 1089.48C201.833 1089.48 202.875 1090.52 202.875 1091.81C202.875 1093.1 201.833 1094.14 200.545 1094.14C199.259 1094.14 198.219 1093.1 198.219 1091.81C198.219 1090.52 199.259 1089.48 200.545 1089.48ZM144.899 1345.73C147.915 1367.79 152.973 1374.58 160.78 1374.24C168.585 1373.9 179.141 1366.43 187.476 1344.48C195.807 1322.52 201.917 1286.09 209.609 1249.88C216.753 1216.28 225.257 1182.86 236.037 1151.27C240.337 1132.35 229.668 1113.24 211.308 1106.98C203.557 1104.34 195.499 1104.34 188.151 1106.55C187.776 1109.14 185.547 1111.13 182.855 1111.13C181.727 1111.13 180.687 1110.78 179.823 1110.19C173.385 1113.98 168.016 1119.68 164.663 1126.91C155.916 1163.93 147.931 1206.5 144.423 1246.44C140.917 1286.38 141.885 1323.69 144.899 1345.73V1345.73ZM179.828 1122.54C181.369 1122.54 182.621 1123.79 182.621 1125.33C182.621 1126.88 181.369 1128.13 179.828 1128.13C178.285 1128.13 177.032 1126.88 177.032 1125.33C177.032 1123.79 178.285 1122.54 179.828 1122.54ZM225.341 1129.06C227.719 1129.06 229.645 1130.99 229.645 1133.36C229.645 1135.74 227.719 1137.67 225.341 1137.67C222.961 1137.67 221.033 1135.74 221.033 1133.36C221.033 1130.99 222.961 1129.06 225.341 1129.06" fill="#F99040"/>
<path fill-rule="evenodd" clip-rule="evenodd" d="M205.016 1391.17C199.719 1389.61 196.081 1385.34 195.285 1374.38C194.481 1363.41 196.52 1345.76 201.883 1319.83C207.247 1293.9 215.935 1259.68 229.515 1223.3C243.091 1186.91 261.555 1148.35 280.836 1124.18C300.112 1100.02 320.209 1090.24 335.889 1090.72C351.569 1091.19 362.841 1101.92 367.525 1116.17C372.209 1130.43 370.305 1148.21 359.172 1166.2C348.04 1184.19 327.675 1202.39 309.547 1226.08C291.424 1249.77 275.537 1278.96 263.793 1302.45C252.048 1325.94 244.448 1343.73 238.543 1357.44C232.637 1371.15 228.424 1380.79 222.847 1386.19C217.263 1391.58 210.311 1392.74 205.016 1391.17Z" fill="#F9BE40"/>
<path fill-rule="evenodd" clip-rule="evenodd" d="M205.016 1391.17C199.719 1389.61 196.081 1385.34 195.285 1374.37C194.481 1363.41 196.52 1345.76 201.883 1319.83C207.244 1293.9 215.935 1259.68 229.515 1223.3C236.573 1204.37 244.956 1184.87 254.087 1167.1C259.925 1159.82 267.995 1154.95 276.809 1153.03C277.512 1156.88 280.88 1159.8 284.936 1159.8C289.055 1159.8 292.469 1156.79 293.097 1152.85C307.349 1155.65 318.992 1165.94 323.508 1179.77C327.493 1191.99 325.36 1205.25 318.019 1215.53C316.837 1216.94 315.655 1218.37 314.48 1219.82L314.467 1219.84V1219.84C312.815 1221.88 311.172 1223.96 309.547 1226.08C291.424 1249.77 275.537 1278.96 263.793 1302.45C252.048 1325.94 244.448 1343.73 238.543 1357.44C232.633 1371.15 228.424 1380.79 222.847 1386.19C217.263 1391.58 210.311 1392.73 205.016 1391.17ZM301.941 1130.09C299.441 1130.09 297.417 1132.12 297.417 1134.62C297.417 1137.11 299.441 1139.14 301.941 1139.14C304.439 1139.14 306.465 1137.11 306.465 1134.62C306.465 1132.12 304.439 1130.09 301.941 1130.09ZM331.312 1149.74C327.472 1149.74 324.363 1152.85 324.363 1156.69C324.363 1160.53 327.472 1163.64 331.312 1163.64C335.149 1163.64 338.259 1160.53 338.259 1156.69C338.259 1152.85 335.149 1149.74 331.312 1149.74ZM318.459 1184.71C320.452 1184.71 322.067 1186.32 322.067 1188.32C322.067 1190.31 320.452 1191.92 318.459 1191.92C316.469 1191.92 314.852 1190.31 314.852 1188.32C314.852 1186.32 316.469 1184.71 318.459 1184.71ZM271.437 1167.25C274.461 1167.25 276.911 1169.7 276.911 1172.72C276.911 1175.75 274.461 1178.2 271.437 1178.2C268.412 1178.2 265.963 1175.75 265.963 1172.72C265.963 1169.7 268.412 1167.25 271.437 1167.25V1167.25ZM289.011 1217.07C290.555 1217.07 291.805 1218.31 291.805 1219.86C291.805 1221.4 290.555 1222.65 289.011 1222.65C287.468 1222.65 286.217 1221.4 286.217 1219.86C286.217 1218.31 287.468 1217.07 289.011 1217.07V1217.07ZM254.087 1167.1V1167.1Z" fill="#F99040"/>
<path fill-rule="evenodd" clip-rule="evenodd" d="M246.649 1406.83C241.759 1402.35 238.894 1394.15 244.521 1374.85C250.147 1355.54 264.267 1325.13 286.807 1291.18C309.343 1257.24 340.302 1219.77 367.726 1198.72C395.151 1177.68 419.049 1173.06 439.141 1179.71C459.234 1186.37 475.527 1204.29 473.086 1224.65C470.642 1245.02 449.458 1267.83 419.454 1290.64C389.449 1313.45 350.621 1336.26 323.463 1356.63C296.311 1376.99 280.833 1394.91 269.639 1403.49C258.443 1412.07 251.534 1411.31 246.649 1406.83Z" fill="#F9BE40"/>
<path fill-rule="evenodd" clip-rule="evenodd" d="M338.246 1238.26C340.626 1238.26 342.553 1240.19 342.553 1242.56C342.553 1244.94 340.626 1246.87 338.246 1246.87C335.87 1246.87 333.942 1244.94 333.942 1242.56C333.942 1240.19 335.87 1238.26 338.246 1238.26ZM246.645 1406.83C241.76 1402.35 238.893 1394.15 244.524 1374.84C250.148 1355.54 264.27 1325.12 286.808 1291.18C297.656 1274.84 310.456 1257.69 323.876 1241.93C333.924 1233.82 346.305 1230.42 358.288 1231.51C357.901 1232.48 357.688 1233.54 357.688 1234.65C357.688 1239.34 361.493 1243.15 366.186 1243.15C370.432 1243.15 373.949 1240.03 374.582 1235.96C380.085 1238.59 385.168 1242.31 389.493 1247.09C406.526 1265.96 405.853 1294.85 387.956 1312.9C365.34 1328.08 341.754 1342.91 323.464 1356.63C296.309 1376.99 280.832 1394.91 269.64 1403.49C258.445 1412.07 251.534 1411.31 246.645 1406.83V1406.83ZM382.134 1288.08C385.736 1288.08 388.654 1291 388.654 1294.6C388.654 1298.2 385.736 1301.12 382.134 1301.12C378.533 1301.12 375.614 1298.2 375.614 1294.6C375.614 1291 378.533 1288.08 382.134 1288.08Z" fill="#F99040"/>
<path d="M226.569 1035.27C227.253 1033.45 229.286 1032.53 231.105 1033.21C232.926 1033.9 233.848 1035.93 233.161 1037.75C184.13 1167.13 160.261 1288.17 161.528 1400.88C159.152 1399.68 156.793 1398.45 154.458 1397.18C153.741 1284.67 177.773 1164.03 226.569 1035.27Z" fill="white"/>
<path d="M102.864 1361.19C97.727 1334.43 94.7204 1306.94 93.8497 1278.7C91.799 1212.51 101.488 1142.28 122.915 1068.01C123.447 1066.15 125.392 1065.06 127.256 1065.6C129.119 1066.13 130.2 1068.08 129.668 1069.94C108.45 1143.49 98.8577 1213.01 100.879 1278.51C101.835 1309.39 105.376 1339.38 111.506 1368.48C108.578 1366.11 105.698 1363.68 102.864 1361.19Z" fill="white"/>
<path d="M195.181 1415.09C203.38 1374.22 214.688 1335 229.11 1297.45C252.092 1237.61 282.957 1182.01 321.705 1130.66C322.874 1129.11 325.086 1128.8 326.638 1129.97C328.193 1131.15 328.501 1133.36 327.33 1134.91C288.95 1185.76 258.4 1240.79 235.676 1299.96C221.298 1337.39 210.045 1376.5 201.914 1417.3C199.658 1416.59 197.412 1415.86 195.181 1415.09Z" fill="white"/>
<path d="M234.302 1425.33C248.952 1389.43 269.97 1355.3 297.369 1322.92C332.437 1281.47 377.968 1242.9 433.957 1207.21C435.597 1206.17 437.77 1206.65 438.812 1208.29C439.856 1209.92 439.374 1212.1 437.734 1213.14C382.373 1248.43 337.377 1286.55 302.746 1327.47C276.205 1358.84 255.761 1391.87 241.422 1426.54C239.037 1426.17 236.664 1425.76 234.302 1425.33Z" fill="white"/>
<path fill-rule="evenodd" clip-rule="evenodd" d="M1400.81 311.413L1492.24 274.38C1495.2 273.182 1498.6 274.621 1499.8 277.58L1546.63 393.211C1547.83 396.17 1546.39 399.566 1543.44 400.765L1452 437.798C1449.05 438.996 1445.65 437.557 1444.45 434.601L1397.62 318.965C1396.42 316.006 1397.86 312.61 1400.81 311.413Z" fill="#EF325A"/>
<path fill-rule="evenodd" clip-rule="evenodd" d="M1400.82 311.41L1402.97 310.539L1454.16 436.926L1452.01 437.798C1449.05 438.997 1445.65 437.557 1444.45 434.599L1397.62 318.967C1396.42 316.01 1397.86 312.61 1400.82 311.41Z" fill="#BA2B4A"/>
<path fill-rule="evenodd" clip-rule="evenodd" d="M1434.28 319.143L1481.12 300.171C1482.74 299.518 1484.59 300.302 1485.24 301.919L1491.11 316.415C1491.77 318.03 1490.98 319.884 1489.37 320.538L1442.53 339.51C1440.92 340.164 1439.06 339.379 1438.41 337.762L1432.54 323.267C1431.88 321.65 1432.67 319.798 1434.28 319.143Z" fill="white"/>
<path fill-rule="evenodd" clip-rule="evenodd" d="M835.608 829.153L924.724 818.603C926.311 818.416 927.764 819.557 927.95 821.144L942.968 947.975C943.154 949.563 942.014 951.012 940.426 951.197L851.307 961.751C849.72 961.939 848.271 960.793 848.08 959.207L833.067 832.379C832.876 830.792 834.022 829.343 835.608 829.153Z" fill="#F9BE40"/>
<path fill-rule="evenodd" clip-rule="evenodd" d="M228.075 312.459L338.676 347.251C341.608 348.172 343.251 351.321 342.327 354.256L295.382 503.493C294.456 506.428 291.306 508.069 288.375 507.148L177.776 472.355C174.843 471.433 173.2 468.284 174.123 465.349L221.072 316.112C221.994 313.179 225.144 311.537 228.075 312.459Z" fill="#F9BE40"/>
<path fill-rule="evenodd" clip-rule="evenodd" d="M330.664 391.327L295.381 503.494C294.456 506.429 291.305 508.069 288.372 507.147L201.556 479.838C201.611 442.203 207.141 398.079 218.145 347.454L330.664 391.327Z" fill="#F99040"/>
<path fill-rule="evenodd" clip-rule="evenodd" d="M230.084 318.948L333.311 351.422C336.048 352.282 336.875 355.096 336.719 357.958C324.63 404.687 321.964 453.358 328.88 501.126C328.724 503.99 325.079 505.395 322.346 504.535L219.118 472.063C217.243 471.474 216.264 469.968 215.883 468.154L215.88 468.138V468.13C215.804 467.77 215.752 467.394 215.723 467.015C209.031 418.742 211.687 369.63 223.55 322.358C223.708 319.494 227.351 318.087 230.084 318.948Z" fill="white"/>
<path fill-rule="evenodd" clip-rule="evenodd" d="M258.364 311.372L314.464 329.021C315.711 329.413 316.411 330.752 316.019 332.001L311.364 346.788C310.972 348.034 309.633 348.734 308.384 348.34L252.285 330.694C251.037 330.302 250.339 328.961 250.733 327.714L255.385 312.926C255.777 311.677 257.115 310.98 258.364 311.372Z" fill="#F99040"/>
<path fill-rule="evenodd" clip-rule="evenodd" d="M844.796 838.065L929.106 807.321C930.608 806.775 932.281 807.554 932.83 809.054L976.58 929.042C977.129 930.542 976.35 932.217 974.846 932.765L890.538 963.506C889.036 964.054 887.361 963.275 886.816 961.773L843.062 841.789C842.517 840.285 843.296 838.611 844.796 838.065Z" fill="white"/>
<path d="M855.798 846.883C855.421 847.021 854.99 846.793 854.838 846.375C854.685 845.959 854.868 845.507 855.246 845.371L925.812 819.64C926.19 819.503 926.618 819.729 926.77 820.147C926.922 820.563 926.741 821.015 926.362 821.152L855.798 846.883ZM893.832 951.189C893.456 951.328 893.024 951.101 892.872 950.684C892.72 950.268 892.904 949.816 893.28 949.679L963.848 923.948C964.222 923.809 964.656 924.037 964.808 924.456C964.958 924.872 964.774 925.324 964.398 925.46L893.832 951.189ZM891.297 944.239C890.92 944.376 890.49 944.149 890.334 943.729C890.185 943.313 890.368 942.861 890.746 942.727L961.312 916.996C961.686 916.857 962.12 917.085 962.27 917.501C962.422 917.917 962.238 918.369 961.862 918.508L891.297 944.239ZM888.762 937.284C888.382 937.421 887.953 937.193 887.802 936.779C887.652 936.361 887.83 935.911 888.21 935.772L958.774 910.041C959.154 909.904 959.584 910.131 959.734 910.547C959.885 910.964 959.705 911.415 959.326 911.553L888.762 937.284ZM886.225 930.329C885.848 930.467 885.417 930.24 885.266 929.824C885.114 929.407 885.298 928.956 885.673 928.817L956.238 903.087C956.617 902.949 957.048 903.176 957.198 903.592C957.353 904.009 957.168 904.461 956.789 904.597L886.225 930.329ZM883.689 923.375C883.314 923.513 882.881 923.285 882.729 922.868C882.578 922.453 882.762 922.001 883.138 921.863L953.705 896.133C954.081 895.995 954.513 896.221 954.664 896.637C954.817 897.057 954.632 897.507 954.254 897.644L883.689 923.375ZM881.153 916.421C880.777 916.559 880.346 916.331 880.194 915.913C880.042 915.499 880.225 915.047 880.604 914.909L951.168 889.177C951.545 889.043 951.977 889.269 952.128 889.687C952.28 890.103 952.096 890.553 951.72 890.692L881.153 916.421ZM878.62 909.468C878.241 909.605 877.81 909.379 877.66 908.964C877.505 908.543 877.689 908.095 878.068 907.957L948.632 882.227C949.01 882.088 949.44 882.315 949.593 882.732C949.744 883.148 949.56 883.6 949.184 883.737L878.62 909.468ZM876.084 902.515C875.705 902.652 875.274 902.424 875.124 902.008C874.972 901.591 875.157 901.14 875.532 901.003L946.096 875.272C946.474 875.132 946.905 875.36 947.056 875.777C947.21 876.192 947.026 876.645 946.648 876.783L876.084 902.515ZM873.548 895.559C873.17 895.697 872.738 895.469 872.588 895.053C872.436 894.637 872.62 894.185 872.994 894.048L943.562 868.316C943.937 868.18 944.369 868.407 944.522 868.823C944.673 869.24 944.49 869.689 944.112 869.829L873.548 895.559ZM871.01 888.605C870.634 888.743 870.202 888.516 870.05 888.099C869.898 887.683 870.084 887.232 870.462 887.093L941.026 861.361C941.401 861.225 941.834 861.452 941.986 861.871C942.137 862.288 941.953 862.739 941.578 862.873L871.01 888.605ZM868.477 881.653C868.098 881.791 867.669 881.561 867.517 881.144C867.362 880.728 867.548 880.277 867.926 880.141L938.49 854.409C938.869 854.273 939.298 854.5 939.449 854.916C939.602 855.333 939.417 855.785 939.042 855.921L868.477 881.653ZM865.94 874.697C865.561 874.837 865.133 874.609 864.981 874.192C864.829 873.776 865.01 873.325 865.389 873.187L935.953 847.457C936.332 847.317 936.762 847.545 936.913 847.963C937.065 848.377 936.884 848.829 936.505 848.967L865.94 874.697ZM863.404 867.744C863.029 867.881 862.597 867.655 862.444 867.239C862.293 866.821 862.477 866.369 862.853 866.233L933.418 840.501C933.796 840.364 934.225 840.591 934.381 841.008C934.532 841.424 934.348 841.875 933.969 842.013L863.404 867.744ZM860.868 860.791C860.493 860.927 860.06 860.7 859.908 860.284C859.757 859.867 859.94 859.416 860.317 859.279L930.884 833.547C931.26 833.409 931.692 833.636 931.844 834.053C931.994 834.468 931.812 834.92 931.436 835.059L860.868 860.791ZM858.334 853.839C857.956 853.972 857.526 853.744 857.372 853.329C857.22 852.912 857.404 852.461 857.782 852.323L928.348 826.592C928.724 826.455 929.156 826.685 929.308 827.101C929.458 827.517 929.274 827.969 928.898 828.104L858.334 853.839Z" fill="#333333"/>
<path fill-rule="evenodd" clip-rule="evenodd" d="M845.421 432.468L1034.42 470.393C1038.44 471.198 1041.07 475.141 1040.26 479.161L1016.26 598.77C1015.45 602.788 1011.51 605.413 1007.49 604.608L818.49 566.682C814.469 565.876 811.842 561.932 812.649 557.913L836.651 438.305C837.457 434.285 841.399 431.658 845.421 432.468Z" fill="#F9BE40"/>
<path fill-rule="evenodd" clip-rule="evenodd" d="M1009 465.291L1034.42 470.393C1038.44 471.199 1041.07 475.144 1040.26 479.161L1016.26 598.771C1015.45 602.788 1011.51 605.413 1007.49 604.608L818.489 566.681C814.469 565.876 811.845 561.932 812.651 557.911L813.04 555.972L1009 465.291Z" fill="#F99040"/>
<path fill-rule="evenodd" clip-rule="evenodd" d="M847.817 445.06L1027.35 481.088C1030.84 481.784 1033.12 485.211 1032.42 488.699L1011.58 592.571C1010.88 596.059 1007.45 598.337 1003.96 597.637L824.43 561.613C820.939 560.913 818.661 557.487 819.361 553.999L840.202 450.131C840.902 446.643 844.329 444.36 847.817 445.06Z" fill="#EF325A"/>
<path fill-rule="evenodd" clip-rule="evenodd" d="M990.744 473.741L1027.35 481.087C1030.84 481.785 1033.12 485.213 1032.42 488.698L1011.58 592.57C1010.88 596.061 1007.45 598.337 1003.96 597.637L824.431 561.613C820.941 560.913 818.661 557.486 819.361 553.998L819.571 552.949L990.744 473.741Z" fill="#BA2B4A"/>
<path fill-rule="evenodd" clip-rule="evenodd" d="M939.439 453.826C941.33 454.205 942.554 456.049 942.175 457.938C941.798 459.829 939.956 461.057 938.063 460.675C936.172 460.297 934.948 458.455 935.326 456.565C935.704 454.673 937.548 453.447 939.439 453.826Z" fill="#333333"/>
<path fill-rule="evenodd" clip-rule="evenodd" d="M433.433 371.096C435.051 346.42 423.31 319.108 422.831 297.187C422.353 275.263 433.133 258.732 449.425 249.631C465.715 240.524 487.519 238.847 496.562 224.795C505.605 210.741 501.891 184.311 502.666 163.948C503.441 143.585 508.711 129.287 516.437 123.755C524.158 118.221 534.342 121.456 538.717 118.221C543.091 114.985 541.661 105.28 550.049 97.1961C558.437 89.1081 576.645 82.6374 597.486 85.7534C618.331 88.8681 641.811 101.567 657.862 121.453C673.915 141.337 682.538 168.409 685.534 191.291C688.527 214.168 685.895 232.857 685.653 247.832C685.415 262.807 687.571 274.067 696.193 286.165C704.818 298.263 719.914 311.201 728.538 327.132C737.163 343.065 739.321 361.992 730.079 379.219C720.842 396.44 700.206 411.96 663.651 428.652C627.099 445.341 574.63 463.203 534.395 475.027C494.162 486.851 466.162 492.64 446.113 485.772C426.066 478.904 413.965 459.38 415.405 438.595C416.839 417.812 431.817 395.772 433.433 371.096Z" fill="#333333"/>
<path fill-rule="evenodd" clip-rule="evenodd" d="M694.695 390.719C626.91 312.632 606.445 242.352 633.302 179.883C635.798 195.833 640.703 208.263 648.009 217.167C660.585 232.488 676.206 228.624 675.985 253.184C675.586 297.221 688.046 290.408 708.559 313.787C723.413 330.711 733.177 365.827 694.695 390.719Z" fill="#212121"/>
<path fill-rule="evenodd" clip-rule="evenodd" d="M552.115 469.671C546.017 471.563 540.084 473.354 534.395 475.027C494.161 486.851 466.159 492.641 446.112 485.773C437.064 479.291 435.039 468.37 442.149 459.701C461.279 441.061 484.519 420.495 511.876 398.002C549.908 414.809 563.316 438.698 552.115 469.671Z" fill="#212121"/>
<path fill-rule="evenodd" clip-rule="evenodd" d="M539.485 178.942C532.501 156.866 543.031 133.039 564.061 123.348C585.089 113.658 610.043 121.128 622.287 140.783C632.17 160.955 637.707 182.467 638.899 205.323C638.578 215.126 635.349 221.847 629.211 225.484C630.983 245.602 631.869 255.66 631.869 255.66C611.235 263.736 588.143 262.676 568.339 252.743C549.102 203.542 539.485 178.942 539.485 178.942Z" fill="#F9BA91"/>
<path fill-rule="evenodd" clip-rule="evenodd" d="M632.716 148.217C633.756 133.139 626.496 118.691 613.778 110.529C601.059 102.363 584.903 101.779 571.626 109.006C558.352 116.233 550.071 130.117 550.019 145.231C573.568 156.839 601.131 157.835 632.716 148.217Z" fill="#CF8263"/>
<path fill-rule="evenodd" clip-rule="evenodd" d="M629.214 225.485C630.983 245.601 631.869 255.659 631.869 255.659C621.009 259.913 609.47 261.63 598.083 260.857L595.403 257.558L584.065 236.47C583.007 234.699 582.991 232.495 584.019 230.706C585.046 228.918 586.961 227.825 589.023 227.847C602.122 232.985 616.807 232.123 629.214 225.485Z" fill="#CF8263"/>
<path fill-rule="evenodd" clip-rule="evenodd" d="M721.797 419.224C723.386 418.359 724.181 417.925 724.181 417.925C725.176 406.428 725.674 400.677 725.674 400.677C725.918 397.421 726.745 395.085 728.154 393.671C732.876 389.719 736.286 385.912 738.396 382.243C739.194 380.68 740.854 379.752 742.604 379.892C744.35 380.036 745.84 381.217 746.376 382.889C747.53 388.024 746.632 392.981 743.68 397.765C755.756 391.081 761.793 387.743 761.793 387.743C764.548 386.488 767.782 386.999 770.016 389.043C772.246 391.087 773.042 394.267 772.037 397.119C776.678 399.087 779.324 404.023 778.396 408.979C779.042 413.148 779.366 415.233 779.366 415.233C781.842 418.161 782.105 422.368 780.012 425.584C782.257 429.404 781.232 434.304 777.644 436.904C768.658 439.995 764.166 441.539 764.166 441.539C759.422 433.78 757.05 429.896 757.05 429.896C755.782 425.416 751.433 422.529 746.809 423.104C731.788 427.56 724.276 429.788 724.276 429.788C722.624 422.744 721.797 419.224 721.797 419.224Z" fill="#CF8263"/>
<path fill-rule="evenodd" clip-rule="evenodd" d="M743.68 397.765L744.682 397.213C744.953 397.7 744.833 398.325 744.38 398.673C743.517 399.339 742.914 400.244 742.628 401.237V401.241C742.341 402.232 742.361 403.319 742.736 404.344L742.758 404.4C743.133 405.396 743.81 406.22 744.654 406.783H744.658C745.465 407.316 746.428 407.621 747.432 407.617C763.834 400.619 772.037 397.119 772.037 397.119C772.389 397.269 772.733 397.437 773.066 397.623C772.956 397.849 772.77 398.039 772.529 398.152L748.273 409.757C747.716 410.125 747.298 410.644 747.049 411.231C746.792 411.833 746.716 412.52 746.854 413.193C746.988 413.864 747.33 414.461 747.804 414.919C748.222 415.321 748.75 415.616 749.333 415.755C759.252 413.375 764.208 412.185 764.208 412.185C773.017 410.644 777.422 409.871 777.422 409.871C777.56 410.488 777.17 411.103 776.553 411.241L763.6 414.167L749.945 417.964C749.278 418.583 748.764 419.335 748.422 420.155C748.05 421.045 747.884 422.031 747.954 423.021V423.031C747.577 423.031 747.196 423.055 746.809 423.103L745.708 423.429C745.686 423.349 745.669 423.268 745.664 423.184C745.569 421.836 745.797 420.495 746.305 419.272C746.576 418.619 746.932 417.996 747.364 417.423C746.942 417.187 746.553 416.901 746.213 416.571C745.413 415.8 744.84 414.792 744.606 413.653C744.374 412.516 744.504 411.361 744.937 410.339C745.044 410.084 745.169 409.839 745.313 409.603L745.28 409.592L745.252 409.584L745.218 409.573L745.121 409.544L745.089 409.531C744.78 409.428 744.481 409.305 744.192 409.161L744.16 409.147L744.101 409.116L744.096 409.113L744.072 409.1L744.041 409.084L744.014 409.071L743.993 409.059L743.985 409.055L743.956 409.039L743.926 409.021C742.168 408.035 740.937 406.269 740.653 404.215C740.593 403.763 740.576 403.315 740.605 402.871C739.874 403.221 739.074 403.457 738.217 403.587C736.608 403.829 734.778 403.709 732.808 403.263C732.345 403.159 732.052 402.697 732.156 402.235C732.261 401.772 732.724 401.48 733.186 401.583C734.945 401.98 736.56 402.095 737.958 401.883C739.226 401.688 740.317 401.221 741.17 400.451C741.213 400.412 741.26 400.38 741.306 400.353C741.836 399.309 742.648 398.409 743.68 397.765ZM760.562 435.645L759.176 433.371C759.405 433.229 759.684 433.171 759.972 433.219C761.782 433.541 763.354 433.699 764.67 433.687C765.901 433.676 766.914 433.519 767.705 433.223L767.714 433.216L767.73 433.211L767.753 433.203L767.758 433.2L767.769 433.195L767.785 433.189H767.788L767.806 433.184L767.813 433.181L767.825 433.176L767.838 433.173L767.841 433.171L767.861 433.164H767.866L767.88 433.161L767.893 433.157H767.898L767.918 433.152H767.92L767.936 433.149L767.95 433.145H767.952L767.972 433.141H767.977L767.99 433.139H768.004L768.009 433.135L768.029 433.132H768.032H768.04L768.048 433.129H768.061H768.064H768.074H768.084L768.088 433.127H768.101L768.116 433.125H768.12H768.14H768.142H768.158C773.23 434.564 775.769 435.283 775.769 435.283C775.689 435.907 775.11 436.349 774.485 436.268L771.096 435.821L771.088 435.817H771.078H771.068L771.058 435.815L771.048 435.812L771.038 435.809H771.036H771.022L771.009 435.807L770.994 435.804L770.978 435.801H770.962L770.945 435.795H770.928L770.909 435.793L769.418 435.571C769.418 435.571 769.618 436.223 770.025 437.532C769.476 437.843 768.772 437.651 768.461 437.101L767.628 435.643C766.774 435.856 765.793 435.969 764.692 435.977C763.472 435.989 762.094 435.876 760.562 435.645V435.645ZM756.597 428.636C756.265 427.893 755.845 427.203 755.349 426.584L762.958 424.667L763.112 424.625L763.264 424.591C766.414 423.815 769.169 423.436 771.53 423.459C771.53 423.459 774.165 424.017 779.438 425.137C779.366 425.767 778.79 426.216 778.16 426.14L772.186 425.393C771.194 425.421 770.197 425.505 769.212 425.636C768.208 425.775 767.201 425.969 766.208 426.212L766.178 426.221L756.597 428.636Z" fill="#333333"/>
<path fill-rule="evenodd" clip-rule="evenodd" d="M690.039 423.945C689.738 430.239 689.587 433.387 689.587 433.387C692.33 433.184 695.354 433.993 698.662 435.812C698.662 435.812 708.155 433.238 727.142 428.087C727.142 428.087 726.155 424.699 724.181 417.926C722.849 417.145 721.199 417.145 719.869 417.926C719.869 417.926 715.197 420.651 705.854 426.103C704.759 424.215 702.931 423.258 700.37 423.229C700.37 423.229 696.929 423.466 690.039 423.945Z" fill="#871F36"/>
<path fill-rule="evenodd" clip-rule="evenodd" d="M763.908 452.296C767.356 452.272 770.235 449.665 770.605 446.237C773.015 447.672 774.22 448.392 774.22 448.392C774.856 450.178 774.689 452.153 773.759 453.808C772.828 455.462 771.224 456.633 769.368 457.017C765.113 456.717 762.989 456.565 762.989 456.565C763.292 454.634 763.601 453.212 763.908 452.296Z" fill="#CF8263"/>
<path fill-rule="evenodd" clip-rule="evenodd" d="M702.534 429.961C696.207 440.615 696.29 453.894 702.75 464.462C707.894 468.962 716.601 471.066 728.873 470.769C729.354 471.821 730.193 472.837 731.389 473.825C737.253 475.185 741.327 473.809 743.607 469.69C748.506 469.409 751.322 466.773 752.054 461.786C752.054 461.786 753.551 461.846 756.545 461.965C758.711 462.159 760.854 461.394 762.409 459.875C763.963 458.351 764.777 456.227 764.63 454.058C769.973 453.777 771.83 450.543 770.203 444.357C770.203 444.357 766.309 438.905 758.521 428.003C756.334 422.909 752.799 420.511 747.919 420.817C735.562 423.122 720.434 426.17 702.534 429.961Z" fill="#F9BA91"/>
<path fill-rule="evenodd" clip-rule="evenodd" d="M725.939 470.793C726.891 470.801 727.87 470.793 728.872 470.769L731.396 467.91C731.814 467.437 731.768 466.713 731.299 466.293C730.826 465.876 730.1 465.918 729.682 466.39L725.939 470.793ZM741.546 472.277C742.35 471.588 743.032 470.725 743.607 469.69L742.831 455.781C742.744 455.153 742.163 454.712 741.538 454.8C740.912 454.886 740.472 455.466 740.56 456.092L741.546 472.277ZM750.018 466.84C751.064 465.574 751.746 463.886 752.054 461.786L750.923 443.4C750.848 442.769 750.272 442.321 749.644 442.397C749.015 442.472 748.566 443.048 748.64 443.676L749.858 463.828L750.018 466.84ZM763.707 458.172C764.33 457.054 764.659 455.786 764.646 454.488L763.908 452.296L758.207 435.377C757.97 434.793 757.298 434.512 756.716 434.753C756.131 434.993 755.851 435.664 756.091 436.248L763.707 458.172Z" fill="#333333"/>
<path fill-rule="evenodd" clip-rule="evenodd" d="M348.473 796.825C340.718 794.736 333.542 791.959 326.949 788.492C313.525 804.231 311.621 826.777 322.208 844.547L400.316 860.648C392.94 842.04 395.768 820.936 407.784 804.929C388.8 802.689 367.113 801.839 348.473 796.825Z" fill="#F9BA91"/>
<path fill-rule="evenodd" clip-rule="evenodd" d="M374.023 855.228L400.316 860.645C392.94 842.037 395.768 820.936 407.784 804.929C399.261 803.922 390.196 803.198 381.105 802.249C371.737 818.36 369.291 837.473 374.023 855.228Z" fill="#CF8263"/>
<path fill-rule="evenodd" clip-rule="evenodd" d="M285.009 882.604C316.488 860.611 332.227 849.615 332.227 849.615C332.601 842.684 329.22 838.228 322.092 836.244C318.479 815.439 321.031 799.992 329.745 789.903H329.743C320.828 777.176 309.299 767.205 295.155 759.989C281.853 768.3 264.027 806.728 241.671 875.275C240.997 888.127 244.948 898.689 253.524 906.969C261.399 909.907 267.367 909.907 271.425 906.969C278.204 899.629 282.729 891.507 285.009 882.604Z" fill="#EF325A"/>
<path fill-rule="evenodd" clip-rule="evenodd" d="M269.728 799.614C261.342 818.42 251.987 843.637 241.668 875.274C240.998 888.126 244.948 898.69 253.524 906.97C261.399 909.906 267.368 909.906 271.424 906.97C278.203 899.629 282.73 891.506 285.01 882.604L269.728 799.614Z" fill="#BA2B4A"/>
<path fill-rule="evenodd" clip-rule="evenodd" d="M295.155 759.99C281.853 768.3 264.026 806.728 241.67 875.275C240.998 888.127 244.947 898.69 253.525 906.97C258.461 908.811 262.647 909.499 266.082 909.032C254.471 892.45 251.507 877.96 257.191 865.571C272.405 824.074 285.485 793.812 296.439 774.794C298.966 771.135 301.985 768.226 305.489 766.063C302.218 763.858 298.77 761.836 295.155 759.99Z" fill="#333333"/>
<path fill-rule="evenodd" clip-rule="evenodd" d="M269.728 799.615C261.342 818.42 251.987 843.637 241.668 875.275C240.998 888.127 244.948 898.691 253.524 906.971C258.459 908.811 262.647 909.499 266.083 909.032C254.471 892.449 251.506 877.96 257.191 865.571C263.087 849.484 268.662 835.088 273.92 822.38L269.728 799.615Z" fill="#212121"/>
<path fill-rule="evenodd" clip-rule="evenodd" d="M565.21 1154.19C558.79 1163.61 546.682 1167.29 536.107 1163.04C525.529 1158.79 519.338 1147.75 521.225 1136.51C539.335 1071.53 548.391 1039.05 548.391 1039.05C562.357 1053.39 582.778 1059.43 602.297 1055C577.574 1121.13 565.21 1154.19 565.21 1154.19Z" fill="#F9BA91"/>
<path fill-rule="evenodd" clip-rule="evenodd" d="M544.383 1053.43L548.391 1039.05C562.359 1053.39 582.775 1059.43 602.298 1055.01L596.022 1071.78C576.899 1074.39 557.617 1067.57 544.383 1053.43Z" fill="#CF8263"/>
<path fill-rule="evenodd" clip-rule="evenodd" d="M546.047 1221.12C512.05 1188.95 494.615 1168.08 493.74 1158.49C512.283 1135.92 521.555 1124.64 521.555 1124.64C523.036 1123.22 524.175 1122.69 524.976 1123.04C523.707 1135.54 532.74 1143.51 552.075 1146.95C554.718 1139.91 557.159 1136.1 559.407 1135.52C569.327 1137.82 574.287 1138.97 574.287 1138.97C576.444 1151.62 577.52 1157.94 577.52 1157.94C607.42 1215.44 619.131 1248.15 619.131 1248.15C618.715 1253.47 616.44 1257.3 612.347 1262.2C588.678 1262.17 566.576 1248.48 546.047 1221.12Z" fill="#EF325A"/>
<path fill-rule="evenodd" clip-rule="evenodd" d="M577.521 1157.94C607.421 1215.44 619.131 1248.14 619.131 1248.14C618.713 1253.47 616.44 1257.3 612.347 1262.2C596.112 1262.18 580.62 1255.73 565.861 1242.86L577.521 1157.94Z" fill="#BA2B4A"/>
<path fill-rule="evenodd" clip-rule="evenodd" d="M546.047 1221.12C512.05 1188.95 494.615 1168.08 493.74 1158.49L502.422 1147.93C504.712 1155.71 508.967 1162.87 515.242 1169.36C528.416 1184.62 540.863 1197.34 552.494 1207.52C568.122 1228.11 590.362 1241.7 619.131 1248.15C618.712 1253.47 616.44 1257.3 612.347 1262.2C588.678 1262.17 566.576 1248.48 546.047 1221.12Z" fill="#333333"/>
<path fill-rule="evenodd" clip-rule="evenodd" d="M568.421 1224.22C582.12 1235.65 599.03 1243.64 619.13 1248.15C618.713 1253.47 616.438 1257.3 612.346 1262.2C596.113 1262.18 580.62 1255.73 565.861 1242.86L568.421 1224.22Z" fill="#212121"/>
<path fill-rule="evenodd" clip-rule="evenodd" d="M677.228 918.473C661.158 952.702 637.368 999.063 605.862 1057.55C582.286 1066.55 555.622 1058.05 541.603 1037.07C552.915 970.386 567.508 924.673 585.372 899.933C594.176 891.338 600.356 879.838 603.918 865.43C622.56 698.697 631.88 615.333 631.88 615.333C636.359 620.115 638.594 622.505 638.594 622.505C657.882 701.153 673.348 771.922 684.991 834.813C690.967 862.787 688.382 890.675 677.228 918.473Z" fill="#CC9997"/>
<path fill-rule="evenodd" clip-rule="evenodd" d="M627.337 655.958L631.88 615.332C636.359 620.116 638.593 622.505 638.593 622.505C644.256 645.586 649.588 667.99 654.589 689.713C645.767 677.936 636.685 666.682 627.337 655.958Z" fill="#A87F7E"/>
<path fill-rule="evenodd" clip-rule="evenodd" d="M567.094 1057.47C565.755 1056.96 564.439 1056.39 563.141 1055.76L616.857 933.85C622.294 911.947 625.375 892.039 626.086 874.135C626.791 856.314 625.162 840.472 621.189 826.622L621.138 826.466L611.945 793.631L613.221 782.226L625.281 825.304L625.315 825.444C629.417 839.742 631.105 856.032 630.381 874.306C629.655 892.568 626.521 912.83 620.983 935.074C620.954 935.195 620.913 935.315 620.863 935.426L620.867 935.428L567.094 1057.47Z" fill="#333333"/>
<path fill-rule="evenodd" clip-rule="evenodd" d="M498.221 535.612C552.263 550.776 600.923 580.897 638.593 622.505C638.593 622.505 627.767 705.915 606.112 872.729C602.643 889.645 591.881 904.169 576.707 912.413C561.532 920.66 543.491 921.788 527.409 915.495C527.409 915.495 482.967 901 394.083 872.011C378.164 850.26 379.512 820.365 397.316 800.133C416.683 798.441 452.86 802.993 505.847 813.787L476.015 634.103C465.553 591.529 472.955 558.697 498.221 535.612Z" fill="#FFBBB9"/>
<path fill-rule="evenodd" clip-rule="evenodd" d="M498.221 535.612C552.263 550.776 600.923 580.897 638.593 622.505L633.343 662.968C590.837 612.552 542.775 573.314 489.16 545.254C491.871 541.869 494.891 538.656 498.221 535.612Z" fill="#CC9997"/>
<path fill-rule="evenodd" clip-rule="evenodd" d="M502.735 813.156L505.847 813.787L513.434 850.323C513.612 851.092 513.135 851.865 512.364 852.044C511.595 852.223 510.819 851.744 510.642 850.973L502.735 813.156Z" fill="#333333"/>
<path fill-rule="evenodd" clip-rule="evenodd" d="M550.771 555.889C552.055 556.529 553.334 557.178 554.607 557.838C547.894 571.266 543.319 590.383 540.89 615.183C538.172 642.946 538.151 677.777 540.831 719.666L540.834 719.833L544.282 824.097V824.222C543.943 835.115 542.686 844.314 540.512 851.807C538.032 860.346 534.347 866.738 529.462 870.973C524.468 875.298 518.303 877.349 510.971 877.121H510.963C507.408 877.01 503.582 876.361 499.491 875.174L499.374 875.137L499.371 875.139C463.692 862.489 425.23 853.694 383.992 848.757C383.716 847.297 383.5 845.829 383.34 844.355C425.354 849.303 464.507 858.213 500.794 871.078C504.5 872.146 507.938 872.729 511.095 872.827C517.315 873.019 522.502 871.319 526.646 867.722C530.894 864.043 534.144 858.334 536.383 850.611C538.454 843.475 539.656 834.654 539.987 824.165L536.539 719.977L536.536 719.937C533.847 677.843 533.87 642.787 536.614 614.779C539.095 589.434 543.815 569.803 550.771 555.889Z" fill="#333333"/>
<path fill-rule="evenodd" clip-rule="evenodd" d="M508.141 435.461C510.354 384.697 521.173 330.537 540.598 272.973C546.036 259.321 555.026 251.918 567.565 250.761C570.94 250.795 574.373 250.851 577.87 250.931C576.653 249.157 575.826 247.151 575.388 244.905C575.388 244.905 594.364 243.122 630.617 241.459C632.154 241.881 633.241 243.241 633.313 244.829C633.673 248.083 633.88 255.638 633.88 258.517C667.484 311.074 723.322 342.529 691.105 397.497C692.173 407.818 693.054 417.902 693.696 427.781L699.841 427.914C701.209 428.382 702.108 429.066 702.534 429.961C699.697 441.295 699.774 453.166 702.75 464.462C702.461 465.803 701.266 466.75 699.894 466.726L694.874 466.49C694.474 509.465 687.693 549.375 669.697 589.913C666.645 591.691 663.052 592.267 658.917 591.637C657.465 597.802 648.206 623.115 638.594 622.505C561.25 567.967 514.458 539.002 498.222 535.611C496.488 534.143 496.073 531.631 497.246 529.685C508.134 517.069 513.581 510.763 513.581 510.763C509.39 505.279 510.164 498.935 515.902 491.735C524.242 477.506 528.409 470.393 528.409 470.393C512.469 464.901 505.712 453.258 508.141 435.461Z" fill="#EF325A"/>
<path fill-rule="evenodd" clip-rule="evenodd" d="M633.879 258.516C634.441 259.399 635.018 260.272 635.59 261.147L609.103 262.263C608.315 262.333 607.618 261.752 607.549 260.965C607.477 260.179 608.057 259.481 608.846 259.411L633.879 258.516Z" fill="#333333"/>
<path fill-rule="evenodd" clip-rule="evenodd" d="M694.095 488.115C691.85 523.023 684.639 556.251 669.697 589.913C666.645 591.692 663.051 592.268 658.917 591.637C657.465 597.803 648.206 623.116 638.594 622.505C561.25 567.968 514.458 539.003 498.222 535.612C496.487 534.144 496.073 531.632 497.246 529.685C526.129 542.068 561.254 561.788 602.623 588.844C615.995 579.671 631.353 578.564 648.695 585.521C631.263 571.872 613.726 558.573 596.083 545.631C636.61 565.796 635.459 540.355 666.383 565.036C677.487 531.903 683.379 505.885 684.065 486.981C687.425 487.299 690.767 487.691 694.095 488.115ZM512.534 511.975L513.581 510.763C510.331 506.509 510.066 501.737 512.79 496.451L552.461 511.439C556.162 516.035 557.911 521.233 557.703 527.035C544.191 521.081 529.137 516.06 512.534 511.975" fill="#BA2B4A"/>
<path fill-rule="evenodd" clip-rule="evenodd" d="M508.141 435.461C509.126 412.842 511.824 389.547 516.226 365.579C521.032 364.053 526.092 363.125 531.31 362.877C527.306 412.091 525.305 436.699 525.305 436.699C524.896 445.141 530.521 452.69 538.726 454.711C620.908 455.654 662 456.125 662 456.125C667.254 456.081 672.308 454.018 677.166 449.935C676.949 442.591 677.428 436.513 678.608 431.697C681.121 448.345 695.437 440.23 697.833 459.373C696.298 444.767 696.969 434.282 699.841 427.914C701.209 428.382 702.108 429.066 702.534 429.961C699.697 441.295 699.774 453.166 702.75 464.462C702.461 465.803 701.266 466.75 699.894 466.726L694.874 466.49C694.777 476.837 694.309 487.006 693.405 497.047C606.874 496.313 549.624 491.275 521.644 481.938L528.409 470.393C512.469 464.901 505.712 453.258 508.141 435.461Z" fill="#BA2B4A"/>
<path fill-rule="evenodd" clip-rule="evenodd" d="M694.857 467.875C694.804 472.217 694.681 476.531 694.49 480.813C648.94 485.661 592.121 484.675 524.037 477.859L527.608 471.759C582.96 473.608 624.552 475.244 662.226 472.367C671.065 472.717 676.769 470.981 679.337 467.159L694.857 467.875Z" fill="#871F36"/>
<path fill-rule="evenodd" clip-rule="evenodd" d="M697.962 382.532C696.396 387.337 694.144 392.31 691.105 397.497C692.121 407.316 692.968 416.921 693.601 426.337L693.596 426.352C684.318 426.134 679.682 426.028 679.682 426.028C678.8 423.046 676.792 420.521 674.089 418.985C610.776 414.676 579.121 412.522 579.121 412.522C579.121 412.522 589.39 381.334 609.933 318.954C611.216 317.521 613.045 316.697 614.97 316.685C616.892 316.674 618.73 317.474 620.034 318.892C634.769 357.164 642.137 376.3 642.137 376.3C646.449 383.061 654.072 386.977 662.081 386.541L697.962 382.532Z" fill="#BA2B4A"/>
<path fill-rule="evenodd" clip-rule="evenodd" d="M691.104 397.497L691.42 400.596L676.568 408.739C675.872 409.12 675 408.864 674.619 408.173C674.238 407.48 674.491 406.604 675.184 406.223L691.104 397.497Z" fill="#333333"/>
<path fill-rule="evenodd" clip-rule="evenodd" d="M658.917 591.637C658.766 592.283 658.525 593.141 658.212 594.155C657.817 594.217 657.402 594.114 657.076 593.837C649.924 587.843 642.598 582.005 635.114 576.333C627.626 570.661 619.945 565.127 612.082 559.747C611.428 559.302 611.261 558.406 611.706 557.754C612.15 557.099 613.045 556.931 613.7 557.375C621.584 562.773 629.3 568.331 636.841 574.046C644.389 579.765 651.752 585.631 658.917 591.637ZM511.488 513.186L513.581 510.763C521.154 512.713 531.408 515.583 537.732 517.701C544.976 520.123 551.385 522.657 556.957 525.289C557.67 525.626 557.98 526.481 557.641 527.194C557.302 527.911 556.449 528.217 555.734 527.882C550.257 525.29 543.95 522.801 536.824 520.415C530.189 518.195 519.976 515.338 511.488 513.186" fill="#333333"/>
<path d="M528.409 470.393C552.417 472.552 577.956 472.384 600.982 472.384V472.377C624.65 472.377 647.714 472.672 670.309 470.401L670.372 470.394C671.954 470.245 673.393 469.828 674.684 469.152C675.982 468.473 677.153 467.508 678.188 466.269C678.501 465.897 678.964 465.724 679.416 465.764L694.874 466.49L694.817 469.354L694.738 469.352L679.913 468.654C678.756 469.917 677.452 470.932 676.008 471.688C674.384 472.536 672.59 473.064 670.638 473.248L670.59 473.254C647.844 475.538 624.685 475.252 600.982 475.252V475.246C577.424 475.244 551.381 475.352 526.808 473.121L528.409 470.393ZM608.118 319.868C608.365 319.116 609.178 318.708 609.933 318.954C610.684 319.198 611.093 320.01 610.846 320.765L580.802 411.748L674.1 417.504V417.506C674.216 417.514 674.334 417.54 674.453 417.577C675.905 418.069 677.188 419.024 678.293 420.429C679.166 421.538 679.937 422.944 680.604 424.642L693.494 424.916L693.696 427.781L679.572 427.485C678.956 427.47 678.438 427.073 678.248 426.524H678.244C677.614 424.709 676.877 423.266 676.038 422.202C675.325 421.301 674.541 420.678 673.694 420.352L578.936 414.478C573.31 415.489 568.738 418.082 565.225 422.246L565.17 422.309C561.592 426.589 559.08 432.538 557.636 440.158C557.49 440.933 556.741 441.448 555.961 441.302C555.186 441.156 554.672 440.406 554.818 439.63C556.352 431.529 559.072 425.145 562.97 420.484L563.038 420.394C566.856 415.865 571.768 412.994 577.766 411.782L608.118 319.868ZM694.542 427.525C694.302 427.693 694.01 427.789 693.696 427.781C693.993 427.73 694.276 427.644 694.542 427.525Z" fill="#333333"/>
<path fill-rule="evenodd" clip-rule="evenodd" d="M559.813 141.868C561.814 152.71 569.405 168.59 567.838 178.238C565.156 194.761 560.484 211.65 569.908 225.568C574.589 232.48 580.222 237.202 586.689 248.344C593.161 259.482 595.941 273.162 595.81 289.848C595.68 306.534 588.969 324.502 576.69 339.896C564.412 355.289 546.562 368.109 532.008 379.789C524.224 386.034 517.384 391.96 511.877 398.001C493.969 412.726 477.821 426.626 463.438 439.7L463.012 439.276C428.777 349.812 518.29 261.552 513.896 178.804C510.934 143.133 533.357 116.684 581.169 99.4544C657.86 107.782 684.74 159.242 661.813 253.842C630.406 262.958 638.992 228.142 637.722 213.757C637.24 208.33 636.577 202.441 635.78 196.157C634.43 185.568 632.697 173.846 629.133 163.966C625.566 154.081 620.17 146.037 610.945 144.172C601.716 142.302 588.661 146.617 574.586 145.237C569.573 144.745 564.433 143.536 559.813 141.868Z" fill="#333333"/>
<path fill-rule="evenodd" clip-rule="evenodd" d="M637.843 219.541C637.883 217.402 637.869 215.44 637.721 213.758C637.24 208.33 636.577 202.441 635.779 196.157C634.429 185.569 632.697 173.846 629.133 163.966C625.567 154.081 620.169 146.037 610.944 144.172C643.504 144.985 641.211 162.136 639.916 186.337C638.903 205.324 648.009 217.166 659.449 226.941C651.752 225.838 644.437 223.293 637.843 219.541Z" fill="#212121"/>
<path fill-rule="evenodd" clip-rule="evenodd" d="M666.441 231.454C665.231 238.631 663.691 246.089 661.812 253.843C630.407 262.958 638.991 228.142 637.721 213.758C637.24 208.33 636.577 202.441 635.779 196.157C635.308 192.442 634.787 188.593 634.157 184.725C636.841 198.371 641.46 209.185 648.009 217.166C654.16 224.665 661.044 227.569 666.441 231.454ZM633.307 179.911L633.303 179.885V179.882L633.307 179.911Z" fill="#212121"/>
<path fill-rule="evenodd" clip-rule="evenodd" d="M1222.92 1072.28C1239.74 1062.48 1251.43 1045.8 1254.91 1026.64C1295.4 1047.01 1315.64 1057.19 1315.64 1057.19C1291.47 1131.06 1260.8 1179.7 1223.64 1203.09C1216.93 1199.74 1213.57 1198.06 1213.57 1198.06C1219.01 1141.81 1222.13 1099.88 1222.92 1072.28Z" fill="#F99040"/>
<path fill-rule="evenodd" clip-rule="evenodd" d="M1303.9 1051.28L1315.64 1057.19C1291.47 1131.06 1260.8 1179.7 1223.64 1203.09C1216.93 1199.74 1213.58 1198.06 1213.58 1198.06C1255.78 1158.24 1285.89 1109.31 1303.9 1051.28Z" fill="#212121"/>
<path fill-rule="evenodd" clip-rule="evenodd" d="M1207.49 638.205L1224.09 776.578C1224.09 776.578 1185.85 812.517 1109.38 884.39C1109.38 884.39 1159.12 930.102 1258.59 1021.53C1259.4 1049.79 1240.93 1075 1213.74 1082.76C1213.74 1082.76 1147.62 1032.45 1015.37 931.83C994.858 908.395 991.894 874.369 1008.04 847.734C1069.64 758.791 1114.26 689.574 1141.9 640.082C1163.71 643.115 1185.88 642.486 1207.49 638.205Z" fill="#4D1630"/>
<path fill-rule="evenodd" clip-rule="evenodd" d="M1216.08 709.857L1224.09 776.578C1224.09 776.578 1185.85 812.517 1109.38 884.389C1109.38 884.389 1159.11 930.102 1258.59 1021.53C1258.74 1026.77 1258.22 1031.91 1257.11 1036.85L1092.9 895.175C1087.93 890.359 1086.36 883.021 1088.92 876.594L1216.08 709.857Z" fill="#361022"/>
<path fill-rule="evenodd" clip-rule="evenodd" d="M1109.38 884.389L1111.49 886.328L1111.4 886.423C1106.59 891.195 1100.79 894.999 1094 897.825C1087.26 900.635 1079.53 902.481 1070.83 903.365C1070.04 903.441 1069.34 902.867 1069.27 902.081C1069.19 901.292 1069.76 900.591 1070.55 900.513C1078.96 899.659 1086.41 897.879 1092.9 895.176C1099.35 892.491 1104.84 888.895 1109.38 884.389Z" fill="#1F0913"/>
<path fill-rule="evenodd" clip-rule="evenodd" d="M1207.49 638.204L1215.46 704.628C1181.26 704.48 1147.02 698.675 1114.17 687.14C1124.79 669.856 1134.03 654.168 1141.9 640.082C1163.71 643.115 1185.88 642.486 1207.49 638.204Z" fill="#361022"/>
<path fill-rule="evenodd" clip-rule="evenodd" d="M1461.5 963.09C1456.31 991.944 1441.14 1006.03 1416 1005.36C1410.54 1065.44 1407.81 1095.49 1407.81 1095.49C1403.3 1108 1405.4 1121.95 1413.41 1132.57C1443.02 1135.89 1464.87 1122.52 1478.96 1092.46C1489.6 1030.08 1494.92 998.887 1494.92 998.887C1472.64 975.022 1461.5 963.09 1461.5 963.09Z" fill="#F9BE40"/>
<path fill-rule="evenodd" clip-rule="evenodd" d="M1412.54 1043.45L1407.81 1095.48C1403.29 1108 1405.4 1121.95 1413.41 1132.57C1443.01 1135.89 1464.86 1122.52 1478.96 1092.47L1480.72 1082.17L1412.54 1043.45Z" fill="#F99040"/>
<path fill-rule="evenodd" clip-rule="evenodd" d="M1408.15 1123.12C1409.44 1126.46 1411.2 1129.64 1413.41 1132.57C1443.02 1135.89 1464.87 1122.52 1478.96 1092.46C1489.6 1030.08 1494.92 998.886 1494.92 998.886L1487.16 990.583L1467.99 1087.37C1456.42 1111.72 1436.47 1123.64 1408.15 1123.12Z" fill="#333333"/>
<path fill-rule="evenodd" clip-rule="evenodd" d="M1344.51 643.614C1347.58 659.017 1347.96 677.996 1345.65 700.557C1345.65 700.557 1344.29 733.189 1332.07 795C1332.07 795 1372.61 848.978 1463.17 960.382C1464.64 973.934 1459.89 987.42 1450.25 997.056C1440.61 1006.7 1427.13 1011.45 1413.57 1009.98C1370.86 969.64 1253.38 873.406 1230.31 836.426C1221.53 822.356 1215.78 804.373 1213.04 782.494L1199.69 639.413C1264.04 629.276 1296.44 613.182 1344.51 643.614Z" fill="#591A37"/>
<path fill-rule="evenodd" clip-rule="evenodd" d="M1344.51 643.615C1346.39 653.035 1347.26 663.8 1347.12 675.9C1302.53 696.575 1254.06 706.16 1205.76 704.44L1199.69 639.413C1264.04 629.276 1296.44 613.183 1344.51 643.615Z" fill="#4D1630"/>
<path fill-rule="evenodd" clip-rule="evenodd" d="M1428.78 678.669C1424.93 691.766 1419.9 700.102 1413.69 703.682C1411.53 703.712 1409.69 702.146 1409.37 700.016C1412.81 693.648 1415.33 683.944 1416.92 670.904C1416.47 663.178 1419.06 652.968 1424.69 640.284C1427.84 627.198 1377.52 556.765 1364.31 511.77C1364.31 511.77 1349.08 487.046 1318.6 437.597C1337.09 431.624 1354.99 423.974 1372.08 414.741C1388.18 445.213 1396.23 460.453 1396.23 460.453C1403.43 472.366 1410.33 485.16 1416.93 498.833C1446.92 542.517 1452.09 593.406 1466.09 620.448C1470.58 626.066 1473.28 632.9 1473.85 640.07C1484.22 661.234 1488.14 667.461 1488.25 675.334C1488.25 675.334 1491.68 694.718 1495.85 716.908C1495.67 719.092 1494.17 720.946 1492.07 721.569C1489.96 722.189 1487.7 721.45 1486.36 719.709C1486.36 719.709 1483.7 708.14 1478.38 684.996C1478.38 684.996 1480.18 700.52 1483.77 731.569C1483.27 733.945 1481.42 735.804 1479.04 736.313C1476.67 736.824 1474.21 735.897 1472.77 733.942C1472.77 733.942 1469.97 717.844 1464.37 685.641C1464.37 685.641 1465.66 702.748 1468.25 736.96C1467.57 739.853 1465.15 742.008 1462.2 742.346C1459.25 742.688 1456.41 741.136 1455.09 738.469C1455.09 738.469 1452.72 721.146 1447.98 686.505C1447.98 686.505 1448.7 702.101 1450.13 733.296C1449.49 735.836 1447.27 737.665 1444.66 737.814C1442.04 737.961 1439.63 736.396 1438.7 733.942C1438.7 733.942 1435.4 715.518 1428.78 678.669" fill="#F9BA91"/>
<path fill-rule="evenodd" clip-rule="evenodd" d="M1428.78 678.669C1428.37 680.039 1427.96 681.355 1427.53 682.619L1427.37 681.081L1427.18 678.78L1426.39 669.435C1426.31 668.996 1426.61 668.581 1427.04 668.508C1427.48 668.432 1427.9 668.727 1427.97 669.164L1428.78 678.669Z" fill="#CF8263"/>
<path fill-rule="evenodd" clip-rule="evenodd" d="M1424.69 640.284C1424.94 639.237 1424.85 637.822 1424.46 636.089C1425.34 635.208 1426.25 634.413 1427.2 633.706C1428.92 632.421 1430.76 631.421 1432.69 630.722C1433.46 630.446 1434.31 630.846 1434.59 631.617C1434.86 632.388 1434.46 633.24 1433.69 633.513C1432.04 634.108 1430.47 634.968 1428.98 636.082C1427.47 637.209 1426.04 638.616 1424.69 640.284Z" fill="#CF8263"/>
<path fill-rule="evenodd" clip-rule="evenodd" d="M1364.81 513.41C1364.64 512.861 1364.47 512.311 1364.32 511.771L1363.08 509.773C1363.96 508.042 1365.18 506.293 1366.57 504.714C1368.76 502.215 1371.43 500.095 1373.93 499.103C1374.69 498.799 1375.56 499.175 1375.86 499.937C1376.16 500.695 1375.78 501.558 1375.03 501.861C1372.97 502.675 1370.71 504.497 1368.8 506.669C1366.92 508.819 1365.41 511.275 1364.81 513.41Z" fill="#CF8263"/>
<path fill-rule="evenodd" clip-rule="evenodd" d="M1340.77 473.573L1325.06 448.073C1325.17 443.515 1326.14 438.934 1328.05 434.581L1328.15 434.345C1343.22 428.943 1357.86 422.417 1371.94 414.809L1372.15 414.877L1388.46 445.757C1374.85 458.45 1358.56 467.962 1340.77 473.573Z" fill="#CF8263"/>
<path fill-rule="evenodd" clip-rule="evenodd" d="M847.99 73.6522C834.578 73.8482 825.361 76.4162 820.337 81.3562C819.741 83.3868 820.739 85.5442 822.673 86.4042C829.606 84.8282 839.457 84.9988 852.218 86.9188C859.415 89.3788 869.762 89.6135 883.251 87.6268C896.465 88.0922 949.906 154.26 989.023 178.605C989.023 178.605 1008.42 199.54 1047.21 241.403C1057.73 225.476 1069.68 210.544 1082.92 196.795C1058.31 173.534 1046 161.901 1046 161.901C1036.62 151.951 1026.33 142.052 1015.12 132.204C981.655 92.3108 934.843 74.0202 912.927 53.6575C908.791 47.9282 903.03 43.5695 896.393 41.1442C879.087 25.7495 874.223 20.4095 866.798 18.2282C866.798 18.2282 849.347 9.8855 829.443 0.0961651C827.326 -0.315835 825.177 0.620175 824.033 2.44818C822.893 4.27484 822.994 6.61752 824.293 8.34018C824.293 8.34018 834.546 13.9042 855.055 25.0282C855.055 25.0282 840.833 19.2415 812.382 7.66951C810.002 7.52018 807.754 8.78552 806.646 10.8975C805.538 13.0122 805.77 15.5775 807.241 17.4548C807.241 17.4548 821.745 24.3468 850.753 38.1255C850.753 38.1255 834.899 32.3988 803.193 20.9455C800.277 20.8228 797.598 22.5495 796.502 25.2522C795.405 27.9535 796.126 31.0575 798.302 33.0015C798.302 33.0015 814.077 39.8042 845.625 53.4135C845.625 53.4135 831.05 48.6308 801.897 39.0588C799.321 38.9962 797.007 40.6162 796.177 43.0522C795.347 45.4922 796.198 48.1868 798.275 49.7068C798.275 49.7068 814.849 57.6895 847.99 73.6522" fill="#F9BA91"/>
<path fill-rule="evenodd" clip-rule="evenodd" d="M883.251 87.6269C884.53 87.6695 886.187 88.3362 888.169 89.5122C889.025 89.2682 889.865 89.0029 890.69 88.7162C892.89 87.9549 894.967 87.0482 896.906 86.0015C897.627 85.6149 897.898 84.7122 897.511 83.9895C897.125 83.2669 896.222 82.9975 895.498 83.3842C893.674 84.3655 891.747 85.2095 889.722 85.9122C887.699 86.6135 885.539 87.1855 883.251 87.6269Z" fill="#CF8263"/>
<path fill-rule="evenodd" clip-rule="evenodd" d="M987.84 177.852L989.024 178.606L990.337 180.025C991.492 179.509 992.685 178.893 993.856 178.209C996.101 176.898 998.323 175.316 1000.1 173.704C1000.7 173.153 1000.75 172.209 1000.2 171.601C999.647 170.994 998.703 170.952 998.097 171.504C996.487 172.965 994.443 174.417 992.353 175.637C990.801 176.541 989.249 177.309 987.84 177.852Z" fill="#CF8263"/>
<path fill-rule="evenodd" clip-rule="evenodd" d="M1040.53 234.196L1047.21 241.404C1057.73 225.476 1069.68 210.544 1082.92 196.798L1065.84 180.644C1053.16 196.163 1044.47 214.552 1040.53 234.196Z" fill="#CF8263"/>
<path fill-rule="evenodd" clip-rule="evenodd" d="M1045.66 248.895C1050.86 275.373 1066.52 295.441 1094.07 332.098C1093.53 396.981 1099.67 484.429 1111.62 580.641C1113.84 598.501 1118.14 625.563 1120.76 643.945C1159.09 696.579 1250.68 654.923 1345.28 649.059C1347.45 648.871 1349.47 647.815 1350.85 646.121C1352.24 644.43 1352.89 642.25 1352.64 640.073C1332.37 548.035 1316.02 515.501 1301.25 435.235L1319.49 461.649C1322.21 464.998 1326.69 466.351 1330.81 465.062C1351.13 457.737 1369.55 445.947 1384.72 430.562C1387.92 426.157 1388.03 424.554 1386.87 421.937C1386.87 421.937 1370.77 390.911 1338.54 328.862C1320.61 298.526 1279.04 278.642 1213.84 269.205C1169.65 257.037 1119.67 240.242 1082.37 185.95C1079.75 184.223 1076.26 184.766 1074.29 187.205C1059.49 206.549 1050.51 220.501 1045.66 248.895Z" fill="#F9BE40"/>
<path fill-rule="evenodd" clip-rule="evenodd" d="M1045.66 248.895C1050.75 274.815 1065.86 294.594 1092.35 329.804L1097.16 270.302L1048.22 237.055C1047.23 240.791 1046.37 244.723 1045.66 248.895Z" fill="#F99040"/>
<path fill-rule="evenodd" clip-rule="evenodd" d="M1225.93 666.579C1262.23 661.236 1303.46 651.651 1345.28 649.059C1347.45 648.871 1349.47 647.815 1350.85 646.12C1352.24 644.43 1352.89 642.25 1352.64 640.075C1332.61 549.114 1316.4 516.262 1301.77 438.03L1301.77 438.023C1301.77 438.023 1289.17 421.246 1263.98 387.695C1261.04 384.58 1256.44 383.707 1252.57 385.526C1248.69 387.347 1246.43 391.448 1246.95 395.694C1269.09 510.375 1262.07 600.662 1225.93 666.579Z" fill="#F99040"/>
<path fill-rule="evenodd" clip-rule="evenodd" d="M1324.71 532.635C1316.51 503.876 1308.95 476.415 1301.77 438.029L1301.77 438.024C1301.77 438.024 1289.17 421.245 1263.97 387.696C1261.04 384.58 1256.44 383.708 1252.57 385.527C1249.46 386.988 1247.38 389.921 1246.96 393.22C1246.96 394.044 1246.95 394.869 1246.95 395.695L1324.71 532.635Z" fill="#F96840"/>
<path fill-rule="evenodd" clip-rule="evenodd" d="M1194.58 262.896C1180.08 257.36 1165.61 249.987 1151.48 240.385C1110.25 278.881 1104.59 307.211 1134.51 325.363C1173.68 313.653 1200.79 299.355 1215.85 282.461L1194.58 262.896Z" fill="#F99040"/>
<path fill-rule="evenodd" clip-rule="evenodd" d="M1091.43 328.59L1094.07 332.097C1094.79 321.525 1095.51 311.3 1096.23 301.438C1096.97 291.23 1097.72 281.366 1098.48 271.845C1098.54 271.057 1097.95 270.364 1097.16 270.302C1096.37 270.24 1095.68 270.832 1095.62 271.621C1094.87 280.964 1094.12 290.841 1093.36 301.234C1092.73 310.004 1092.08 319.121 1091.43 328.59ZM1119.24 633.526L1119.91 638.074C1131.16 648.149 1144.97 655.052 1161.31 658.781C1180.41 663.136 1202.97 663.148 1228.99 658.818C1229.77 658.694 1230.3 657.956 1230.18 657.174C1230.05 656.393 1229.31 655.864 1228.53 655.99C1202.87 660.257 1180.67 660.257 1161.94 655.988C1144.82 652.081 1130.58 644.593 1119.24 633.526V633.526ZM1318.75 460.569L1319.49 461.648C1319.85 462.1 1320.25 462.512 1320.67 462.888C1330.51 458.945 1339.7 454.605 1348.25 449.87C1358.33 444.284 1367.53 438.146 1375.81 431.461C1376.42 430.968 1376.52 430.064 1376.03 429.448C1375.53 428.83 1374.63 428.733 1374.01 429.229C1365.85 435.813 1356.8 441.861 1346.85 447.369C1338.17 452.177 1328.8 456.576 1318.75 460.569V460.569ZM1047.68 257.177C1048.18 258.861 1048.72 260.528 1049.3 262.185C1050.61 257.237 1051.94 252.537 1053.27 248.086C1056.23 238.26 1059.25 229.702 1062.33 222.418C1062.63 221.692 1062.29 220.849 1061.57 220.545C1060.84 220.236 1060 220.578 1059.69 221.306C1056.55 228.732 1053.49 237.389 1050.52 247.266C1049.57 250.438 1048.62 253.741 1047.68 257.177V257.177ZM1153.48 281.392C1154.05 280.848 1154.97 280.869 1155.51 281.442C1156.05 282.013 1156.03 282.924 1155.46 283.468C1150.99 287.729 1148.35 291.382 1147.57 294.416C1147.28 295.53 1147.25 296.549 1147.47 297.47C1147.69 298.38 1148.18 299.229 1148.93 300.009C1150.61 301.776 1153.57 303.212 1157.79 304.314C1166.3 305.634 1175.46 305.868 1184.35 304.892C1192.76 303.972 1200.91 301.97 1208.01 298.805C1208.73 298.481 1209.58 298.808 1209.9 299.526C1210.22 300.248 1209.9 301.097 1209.18 301.42C1201.78 304.714 1193.34 306.79 1184.66 307.744C1175.52 308.744 1166.1 308.504 1157.34 307.141C1157.27 307.134 1157.2 307.121 1157.13 307.102C1152.34 305.858 1148.91 304.153 1146.85 301.984C1145.76 300.836 1145.03 299.556 1144.69 298.154C1144.35 296.768 1144.38 295.278 1144.79 293.7C1145.72 290.136 1148.62 286.028 1153.48 281.392ZM1302.29 440.806L1301.25 435.236L1265.98 387.988C1265.51 387.353 1264.61 387.22 1263.97 387.696C1263.34 388.169 1263.21 389.073 1263.68 389.705L1301.42 440.257C1301.64 440.554 1301.96 440.742 1302.29 440.806" fill="#333333"/>
<path fill-rule="evenodd" clip-rule="evenodd" d="M1219.99 191.412C1221.76 170.637 1211.14 150.764 1192.9 140.681C1174.65 130.597 1152.18 132.19 1135.53 144.742C1118.89 157.298 1111.18 178.468 1115.86 198.785C1127.33 239.517 1133.07 259.886 1133.07 259.886C1136.66 267.906 1143.5 275.845 1152.11 276.84L1155.91 294.753C1176.63 301.926 1199.62 297.214 1215.85 282.461C1216.71 244.224 1217.14 225.106 1217.14 225.106C1219 202.966 1219.95 191.733 1219.99 191.412Z" fill="#F9BA91"/>
<path fill-rule="evenodd" clip-rule="evenodd" d="M1150.95 136.698C1145.49 138.479 1140.27 141.164 1135.53 144.744C1118.89 157.296 1111.18 178.468 1115.86 198.782L1120.31 214.584C1155.6 218.348 1180.86 207.816 1196.07 182.984C1193.83 162.398 1179.69 145.056 1159.97 138.734C1156.99 137.78 1153.98 137.106 1150.95 136.698Z" fill="#CF8263"/>
<path fill-rule="evenodd" clip-rule="evenodd" d="M1180.77 178.236C1180 176.502 1178.51 179.285 1177.56 183.368C1176.61 187.45 1176.18 192.832 1169.11 196.841C1162.05 200.854 1148.35 203.496 1137.39 204.881C1126.43 206.265 1118.21 206.392 1109.26 202.657C1100.31 198.924 1090.61 191.33 1086.12 180.85C1081.64 170.37 1082.35 157 1086.7 147.224C1091.05 137.449 1099.03 131.268 1106.87 131.198C1114.7 131.128 1122.4 137.168 1129.78 136.841C1137.17 136.513 1144.25 129.817 1153.21 126.292C1162.17 122.762 1173.02 122.402 1181.67 124.486C1190.33 126.572 1196.79 131.1 1200.09 135.522C1203.39 139.94 1203.53 144.25 1207.47 146.384C1211.42 148.516 1219.16 148.473 1224.31 153.757C1229.46 159.044 1232.02 169.664 1232.91 179.08C1233.81 188.494 1233.06 196.709 1231.49 204.264C1229.93 211.821 1227.56 218.722 1224.84 230.478C1222.13 242.236 1219.07 258.853 1216.7 263.598C1214.33 268.344 1212.65 261.222 1212.07 254.057C1211.49 246.889 1212.01 239.682 1211.68 234.721C1211.35 229.76 1210.18 227.044 1211.2 222.81C1212.23 218.578 1215.44 212.828 1216.51 207.333C1217.57 201.84 1216.47 196.596 1213.53 194.544C1210.58 192.49 1205.78 193.626 1202.94 199.377C1200.09 205.125 1199.21 215.49 1197.69 219.533C1196.18 223.578 1194.03 221.301 1192.45 215.677C1190.87 210.056 1189.86 201.085 1188.16 196.657C1186.46 192.229 1184.07 192.345 1182.84 189.281C1181.61 186.214 1181.55 179.966 1180.77 178.236Z" fill="#333333"/>
<path fill-rule="evenodd" clip-rule="evenodd" d="M1152.11 276.84L1155.91 294.753C1163.53 297.393 1171.46 298.42 1179.24 297.936L1192.12 284.616C1194.13 280.196 1193.08 274.991 1189.53 271.679C1177.99 277.533 1164.81 279.349 1152.11 276.84Z" fill="#CF8263"/>
<path d="M1210.22 789.62L1202.62 690.825C1202.53 689.806 1203.27 688.897 1204.29 688.804C1205.31 688.708 1206.22 689.454 1206.32 690.477L1213.58 786.461L1210.22 789.62Z" fill="#1F0913"/>
</g>
<defs>
<clipPath id="clip0">
<rect width="1781" height="1430" fill="white"/>
</clipPath>
</defs>
</svg>
