<?xml version="1.0" encoding="utf-8"?>
<!-- Generator: Adobe Illustrator 16.0.0, SVG Export Plug-In . SVG Version: 6.00 Build 0)  -->
<!DOCTYPE svg PUBLIC "-//W3C//DTD SVG 1.1//EN" "http://www.w3.org/Graphics/SVG/1.1/DTD/svg11.dtd">
<svg version="1.1" id="Layer_1" xmlns="http://www.w3.org/2000/svg" xmlns:xlink="http://www.w3.org/1999/xlink" x="0px" y="0px"
	 width="512px" height="512px" viewBox="0 0 512 512" enable-background="new 0 0 512 512" xml:space="preserve">
<g id="_x37_._certificate_x2C__school_x2C__university_x2C__college_x2C__learning">
	<g>
		<g>
			<path fill="#E6E9ED" d="M132.004,483.993c22.078,0,39.999-17.921,39.999-39.999h247.994h79.996
				c0,22.078-17.92,39.999-39.998,39.999H132.004z"/>
		</g>
	</g>
	<g>
		<path fill="#FFCE54" d="M467.994,443.994c0,22.078-17.922,39.999-40,39.999h32c22.078,0,39.998-17.921,39.998-39.999H467.994z"/>
	</g>
	<g opacity="0.1">
		<g>
			<path d="M132.004,483.993c22.078,0,39.999-17.921,39.999-39.999h247.994h79.996c0,22.078-17.92,39.999-39.998,39.999H132.004z"/>
		</g>
	</g>
	<g>
		<path fill="#E6E9ED" d="M132.004,483.993c-22.078,0-39.999-17.921-39.999-39.999V52.006v-8h247.993
			c0-22.078,17.92-39.999,39.998-39.999s40,17.921,40,39.999v399.988c0,22.078,17.92,39.999,39.998,39.999H132.004z
			 M339.998,451.994c17.678,0,31.998-14.32,31.998-31.999s-14.32-31.999-31.998-31.999c-17.68,0-32,14.32-32,31.999
			S322.318,451.994,339.998,451.994z M355.998,132.004v-24H156.003v24H355.998z"/>
	</g>
	<g>
		<g>
			<path fill="#FFCE54" d="M419.996,443.994V44.006c0-22.078-17.922-39.999-40-39.999c-5.695,0-11.094,1.23-16,3.383
				c14.109,6.179,24,20.233,24,36.616v399.988c0,22.078,17.922,39.999,39.998,39.999h32
				C437.916,483.993,419.996,466.072,419.996,443.994z"/>
		</g>
	</g>
	<g>
		<g>
			<path fill="#FFCE54" d="M124.004,443.994V52.006v-8H92.005v8v391.988c0,22.078,17.921,39.999,39.999,39.999h31.999
				C141.925,483.993,124.004,466.072,124.004,443.994z"/>
		</g>
	</g>
	<g opacity="0.5">
		<path fill="#FFFFFF" d="M108.004,443.994V52.006v-8h-16v8v391.988c0,22.078,17.921,39.999,39.999,39.999h16
			C125.926,483.993,108.004,466.072,108.004,443.994z"/>
	</g>
	<g>
		<g>
			<path fill="#E6E9ED" d="M379.996,4.008c-22.078,0-39.998,17.921-39.998,39.999H92.005H12.007
				c0-22.078,17.921-39.999,39.999-39.999H379.996z"/>
		</g>
	</g>
	<g opacity="0.2">
		<path d="M379.996,4.008c-22.078,0-39.998,17.921-39.998,39.999v8c0-22.078,17.92-39.999,39.998-39.999s40,17.921,40,39.999v-8
			C419.996,21.929,402.074,4.008,379.996,4.008z"/>
	</g>
	<g>
		<g opacity="0.2">
			<path d="M419.996,443.994V52.006c0-18.789-13.023-34.452-30.5-38.737c8.844,7.328,14.5,18.363,14.5,30.737v399.988
				c0,22.078,17.92,39.999,39.998,39.999h16C437.916,483.993,419.996,466.072,419.996,443.994z"/>
		</g>
	</g>
	<g>
		<g>
			<polygon fill="#ED5565" points="355.998,443.994 323.998,443.994 323.998,507.992 339.998,499.992 355.998,507.992 			"/>
		</g>
		<g opacity="0.2">
			<path d="M323.998,455.557c4.719,2.75,10.141,4.438,16,4.438s11.281-1.688,16-4.438v-11.562h-32V455.557z"/>
		</g>
		<g opacity="0.5">
			<path fill="#FFFFFF" d="M323.998,455.557v52.436l8-4V458.9C329.17,458.127,326.482,457.002,323.998,455.557z"/>
		</g>
		<g opacity="0.2">
			<path d="M355.998,455.557v52.436l-8-4V458.9C350.826,458.127,353.514,457.002,355.998,455.557z"/>
		</g>
		<g>
			<circle fill="#ED5565" cx="339.997" cy="419.995" r="31.999"/>
		</g>
		<g opacity="0.5">
			<path fill="#FFFFFF" d="M315.998,419.995c0-16.296,12.234-29.608,28-31.593c-1.328-0.172-2.625-0.406-4-0.406
				c-17.672,0-32,14.328-32,31.999s14.328,31.999,32,31.999c1.375,0,2.672-0.234,4-0.406
				C328.232,449.604,315.998,436.291,315.998,419.995z"/>
		</g>
		<g opacity="0.2">
			<path d="M363.996,419.995c0,16.296-12.232,29.608-27.998,31.593c1.328,0.172,2.625,0.406,4,0.406
				c17.67,0,31.998-14.328,31.998-31.999s-14.328-31.999-31.998-31.999c-1.375,0-2.672,0.234-4,0.406
				C351.764,390.387,363.996,403.699,363.996,419.995z"/>
		</g>
		<g>
			<path fill="#FFCE54" d="M347.998,419.995c0,4.422-3.578,7.999-8,7.999s-8-3.577-8-7.999s3.578-8,8-8
				S347.998,415.573,347.998,419.995z"/>
		</g>
	</g>
	<g>
		<rect x="156.003" y="108.004" fill="#ED5565" width="199.995" height="24"/>
	</g>
	<g>
		<path fill="#FFCE54" d="M84.005,4.008H52.006c-22.078,0-39.999,17.921-39.999,39.999h31.999
			C44.006,21.929,61.928,4.008,84.005,4.008z"/>
	</g>
	<g>
		<path fill="#FFCE54" d="M379.996,4.008h-31.998c-22.078,0-40,17.921-40,39.999h32C339.998,21.929,357.918,4.008,379.996,4.008z"/>
	</g>
	<g opacity="0.2">
		<rect x="92.005" y="44.006" width="247.993" height="8"/>
	</g>
	<g opacity="0.2">
		<path d="M499.18,443.994h-15.186c0,12.453-5.828,23.453-14.766,30.788c-2.984,0.711-6.039,1.211-9.234,1.211
			c-19.336,0-35.484-13.749-39.188-31.999h-0.811c0,19.336,13.748,35.483,31.998,39.187c-2.586,0.531-5.258,0.812-8,0.812h16
			c22.078,0,39.998-17.921,39.998-39.999H499.18z"/>
	</g>
	<g opacity="0.2">
		<g>
			<path fill="#FFFFFF" d="M379.996,4.008c-22.078,0-39.998,17.921-39.998,39.999H92.005H12.007
				c0-22.078,17.921-39.999,39.999-39.999H379.996z"/>
		</g>
	</g>
	<g opacity="0.5">
		<path fill="#FFFFFF" d="M68.006,4.008h-16c-22.078,0-39.999,17.921-39.999,39.999h16C28.007,21.929,45.928,4.008,68.006,4.008z"/>
	</g>
	<g opacity="0.2">
		<path d="M379.996,4.008h-16c-22.076,0-39.998,17.921-39.998,39.999h16C339.998,21.929,357.918,4.008,379.996,4.008z"/>
	</g>
	<g opacity="0.3">
		<rect x="156.003" y="108.004" fill="#FFFFFF" width="16" height="24"/>
	</g>
	<g opacity="0.2">
		<rect x="339.998" y="108.004" width="16" height="24"/>
	</g>
	<g>
		<g>
			<path fill="#3A3847" d="M12.007,48.006c-2.211,0-4-1.789-4-4c0-24.261,19.738-43.999,43.999-43.999c2.211,0,4,1.789,4,4
				s-1.789,4-4,4c-19.851,0-35.999,16.147-35.999,35.999C16.007,46.217,14.218,48.006,12.007,48.006z"/>
		</g>
		<g>
			<path fill="#3A3847" d="M419.996,447.994c-2.211,0-4-1.789-4-4V44.006c0-2.21,1.789-4,4-4c2.209,0,3.998,1.789,3.998,4v399.988
				C423.994,446.205,422.205,447.994,419.996,447.994z"/>
		</g>
		<g>
			<path fill="#3A3847" d="M419.996,48.006c-2.211,0-4-1.789-4-4c0-19.851-16.148-35.999-36-35.999c-2.211,0-4-1.789-4-4
				s1.789-4,4-4c24.266,0,43.998,19.738,43.998,43.999C423.994,46.217,422.205,48.006,419.996,48.006z"/>
		</g>
		<g>
			<path fill="#3A3847" d="M339.998,48.006c-2.211,0-4-1.789-4-4c0-24.261,19.734-43.999,43.998-43.999c2.211,0,4,1.789,4,4
				s-1.789,4-4,4c-19.852,0-35.998,16.147-35.998,35.999C343.998,46.217,342.209,48.006,339.998,48.006z"/>
		</g>
		<g>
			<path fill="#3A3847" d="M459.994,487.993c-24.266,0-43.998-19.734-43.998-43.999c0-2.211,1.789-4,4-4
				c2.209,0,3.998,1.789,3.998,4c0,19.852,16.148,35.999,36,35.999c2.211,0,4,1.789,4,4S462.205,487.993,459.994,487.993z"/>
		</g>
		<g>
			<path fill="#3A3847" d="M132.004,487.993c-24.261,0-43.999-19.734-43.999-43.999c0-2.211,1.789-4,4-4c2.211,0,4,1.789,4,4
				c0,19.852,16.148,35.999,35.999,35.999c2.21,0,4,1.789,4,4S134.214,487.993,132.004,487.993z"/>
		</g>
		<g>
			<path fill="#3A3847" d="M459.994,487.993c-2.211,0-4-1.789-4-4s1.789-4,4-4c19.852,0,35.998-16.147,35.998-35.999
				c0-2.211,1.789-4,4-4s4,1.789,4,4C503.992,468.259,484.258,487.993,459.994,487.993z"/>
		</g>
		<g>
			<path fill="#3A3847" d="M379.996,8.008H52.006c-2.211,0-4-1.789-4-4s1.789-4,4-4h327.99c2.211,0,4,1.789,4,4
				S382.207,8.008,379.996,8.008z"/>
		</g>
		<g>
			<path fill="#3A3847" d="M307.998,487.993H132.004c-2.211,0-4-1.789-4-4s1.789-4,4-4h175.994c2.211,0,4,1.789,4,4
				S310.209,487.993,307.998,487.993z"/>
		</g>
		<g>
			<path fill="#3A3847" d="M92.005,447.994c-2.21,0-4-1.789-4-4V52.006c0-2.211,1.789-4,4-4c2.211,0,4,1.789,4,4v391.988
				C96.005,446.205,94.216,447.994,92.005,447.994z"/>
		</g>
		<g>
			<path fill="#3A3847" d="M339.998,48.006H12.007c-2.211,0-4-1.789-4-4c0-2.21,1.789-4,4-4h327.991c2.211,0,4,1.789,4,4
				C343.998,46.217,342.209,48.006,339.998,48.006z"/>
		</g>
		<g>
			<path fill="#3A3847" d="M499.992,447.994h-71.998c-2.211,0-4-1.789-4-4s1.789-4,4-4h71.998c2.211,0,4,1.789,4,4
				S502.203,447.994,499.992,447.994z"/>
		</g>
		<g>
			<path fill="#3A3847" d="M339.998,455.994c-19.852,0-36-16.148-36-35.999s16.148-35.999,36-35.999
				c19.85,0,35.998,16.148,35.998,35.999S359.848,455.994,339.998,455.994z M339.998,391.996c-15.438,0-28,12.562-28,27.999
				c0,15.437,12.562,27.999,28,27.999s27.998-12.562,27.998-27.999C367.996,404.558,355.436,391.996,339.998,391.996z"/>
		</g>
		<g>
			<path fill="#3A3847" d="M339.998,431.994c-6.617,0-12-5.382-12-11.999s5.383-12,12-12s12,5.383,12,12
				S346.615,431.994,339.998,431.994z M339.998,415.995c-2.203,0-4,1.797-4,4s1.797,4,4,4s4-1.797,4-4
				S342.201,415.995,339.998,415.995z"/>
		</g>
		<g>
			<path fill="#3A3847" d="M323.998,511.992c-2.211,0-4-1.789-4-4v-47.998c0-2.211,1.789-4,4-4s4,1.789,4,4v47.998
				C327.998,510.203,326.209,511.992,323.998,511.992z"/>
		</g>
		<g>
			<path fill="#3A3847" d="M355.998,511.992c-2.211,0-4-1.789-4-4v-47.998c0-2.211,1.789-4,4-4c2.209,0,3.998,1.789,3.998,4v47.998
				C359.996,510.203,358.207,511.992,355.998,511.992z"/>
		</g>
		<g>
			<path fill="#3A3847" d="M323.998,511.992c-1.469,0-2.875-0.812-3.578-2.211c-0.984-1.977-0.188-4.383,1.789-5.367l16-8
				c1.977-0.977,4.383-0.188,5.367,1.789s0.188,4.383-1.789,5.367l-16,8C325.217,511.852,324.607,511.992,323.998,511.992z"/>
		</g>
		<g>
			<path fill="#3A3847" d="M355.998,511.992c-0.609,0-1.219-0.141-1.789-0.422l-16-8c-1.977-0.984-2.773-3.391-1.789-5.367
				c0.992-1.977,3.391-2.766,5.367-1.789l15.998,8c1.977,0.984,2.773,3.391,1.789,5.367
				C358.871,511.18,357.465,511.992,355.998,511.992z"/>
		</g>
		<g>
			<path fill="#3A3847" d="M459.994,487.993h-87.998c-2.211,0-4-1.789-4-4s1.789-4,4-4h87.998c2.211,0,4,1.789,4,4
				S462.205,487.993,459.994,487.993z"/>
		</g>
		<g>
			<path fill="#3A3847" d="M355.998,136.004H156.003c-2.21,0-4-1.789-4-4v-24c0-2.21,1.789-4,4-4h199.995
				c2.209,0,3.998,1.789,3.998,4v24C359.996,134.215,358.207,136.004,355.998,136.004z M160.003,128.004h191.995v-16H160.003
				V128.004z"/>
		</g>
		<g>
			<path fill="#3A3847" d="M252,415.995h-95.997c-2.21,0-4-1.789-4-4s1.789-4,4-4H252c2.211,0,4,1.789,4,4
				S254.211,415.995,252,415.995z"/>
		</g>
		<g>
			<path fill="#3A3847" d="M204.001,431.994h-47.999c-2.21,0-4-1.789-4-4c0-2.21,1.789-3.999,4-3.999h47.999
				c2.211,0,4,1.789,4,3.999C208.001,430.205,206.212,431.994,204.001,431.994z"/>
		</g>
		<g>
			<path fill="#3A3847" d="M355.998,224.001H156.003c-2.21,0-4-1.789-4-4s1.789-4,4-4h199.995c2.209,0,3.998,1.789,3.998,4
				S358.207,224.001,355.998,224.001z"/>
		</g>
		<g>
			<path fill="#3A3847" d="M355.998,256H156.003c-2.21,0-4-1.789-4-4s1.789-4,4-4h199.995c2.209,0,3.998,1.789,3.998,4
				S358.207,256,355.998,256z"/>
		</g>
		<g>
			<path fill="#3A3847" d="M355.998,287.999H156.003c-2.21,0-4-1.789-4-4s1.789-4,4-4h199.995c2.209,0,3.998,1.789,3.998,4
				S358.207,287.999,355.998,287.999z"/>
		</g>
		<g>
			<path fill="#3A3847" d="M252,319.998h-95.997c-2.21,0-4-1.789-4-4s1.789-4,4-4H252c2.211,0,4,1.789,4,4
				S254.211,319.998,252,319.998z"/>
		</g>
	</g>
</g>
</svg>
