<svg width="256" height="256" viewBox="0 0 256 256" fill="none" xmlns="http://www.w3.org/2000/svg">
<g clip-path="url(#clip0)">
<path d="M120.426 209.354C107.378 217.526 90.3764 208.507 89.8238 193.121L84.8921 55.8162C84.3395 40.4302 100.65 30.2156 114.251 37.4301L235.627 101.812C249.228 109.026 249.918 128.259 236.87 136.43L120.426 209.354Z" fill="#2E7EED" fill-opacity="0.41"/>
<g filter="url(#filter0_d)">
<path d="M48.7718 209.354C35.7234 217.526 18.7221 208.507 18.1695 193.121L13.2378 55.8162C12.6852 40.4302 28.9957 30.2156 42.5967 37.4301L163.972 101.812C177.573 109.026 178.264 128.259 165.216 136.43L48.7718 209.354Z" fill="#2E7EED"/>
</g>
</g>
<defs>
<filter id="filter0_d" x="-53.5977" y="28.0442" width="239.265" height="231.604" filterUnits="userSpaceOnUse" color-interpolation-filters="sRGB">
<feFlood flood-opacity="0" result="BackgroundImageFix"/>
<feColorMatrix in="SourceAlpha" type="matrix" values="0 0 0 0 0 0 0 0 0 0 0 0 0 0 0 0 0 0 127 0"/>
<feOffset dy="4"/>
<feGaussianBlur stdDeviation="2"/>
<feColorMatrix type="matrix" values="0 0 0 0 0 0 0 0 0 0 0 0 0 0 0 0 0 0 0.25 0"/>
<feBlend mode="normal" in2="BackgroundImageFix" result="effect1_dropShadow"/>
<feBlend mode="normal" in="SourceGraphic" in2="effect1_dropShadow" result="shape"/>
</filter>
<clipPath id="clip0">
<rect width="256" height="256" fill="white"/>
</clipPath>
</defs>
</svg>
