<svg width="150" height="33" viewBox="0 0 150 33" fill="none" xmlns="http://www.w3.org/2000/svg">
<g clip-path="url(#clip0)">
<path d="M19.5588 30.7801C17.2684 32.2145 14.2841 30.6315 14.1871 27.9308L13.3214 3.82936C13.2244 1.12861 16.0874 -0.664366 18.4749 0.602L39.7802 11.903C42.1676 13.1694 42.2888 16.5453 39.9984 17.9797L19.5588 30.7801Z" fill="#2E7EED" fill-opacity="0.41"/>
<path d="M117.027 14.3672C118.185 14.3672 119.104 14.7066 119.783 15.3853C120.473 16.0523 120.818 17.0295 120.818 18.3167V23.6704H119.572V18.4396C119.572 17.48 119.332 16.7486 118.853 16.2454C118.373 15.7422 117.688 15.4906 116.799 15.4906C115.804 15.4906 115.014 15.789 114.429 16.3858C113.856 16.9709 113.569 17.7842 113.569 18.8257V23.6704H112.323V14.4374H113.516V16.1401C113.856 15.5784 114.324 15.1454 114.921 14.8412C115.529 14.5252 116.231 14.3672 117.027 14.3672ZM128.186 22.6523C128.759 22.6523 129.286 22.5529 129.766 22.3539C130.257 22.1433 130.672 21.839 131.012 21.4412L131.714 22.2486C131.304 22.7401 130.795 23.1146 130.187 23.372C129.578 23.6295 128.905 23.7582 128.168 23.7582C127.22 23.7582 126.378 23.5592 125.641 23.1614C124.903 22.7518 124.33 22.1901 123.92 21.4763C123.511 20.7624 123.306 19.955 123.306 19.0539C123.306 18.1529 123.499 17.3454 123.885 16.6316C124.283 15.9178 124.827 15.3619 125.518 14.964C126.208 14.5662 126.992 14.3672 127.87 14.3672C128.689 14.3672 129.426 14.5545 130.081 14.9289C130.749 15.3034 131.275 15.8241 131.661 16.4912C132.059 17.1582 132.27 17.9188 132.293 18.7731L124.71 20.2475C124.944 20.9965 125.366 21.5874 125.974 22.0204C126.594 22.4417 127.331 22.6523 128.186 22.6523ZM127.87 15.438C127.226 15.438 126.647 15.5901 126.132 15.8943C125.629 16.1869 125.231 16.6023 124.938 17.1406C124.658 17.6672 124.517 18.2757 124.517 18.9662C124.517 19.1417 124.523 19.2704 124.535 19.3523L131.047 18.0885C130.906 17.3162 130.55 16.6842 129.976 16.1927C129.403 15.6896 128.701 15.438 127.87 15.438ZM140.453 23.6704L137.522 19.8087L134.573 23.6704H133.169L136.82 18.931L133.344 14.4374H134.748L137.522 18.0534L140.295 14.4374H141.664L138.189 18.931L141.875 23.6704H140.453ZM148.496 23.1087C148.262 23.3193 147.975 23.4832 147.635 23.6002C147.296 23.7055 146.939 23.7582 146.565 23.7582C145.699 23.7582 145.032 23.5241 144.564 23.056C144.096 22.588 143.862 21.9268 143.862 21.0725V12.4188H145.108V14.4374H147.899V15.4906H145.108V21.0023C145.108 21.5523 145.242 21.9736 145.512 22.2662C145.781 22.547 146.173 22.6874 146.688 22.6874C147.249 22.6874 147.706 22.5295 148.057 22.2135L148.496 23.1087Z" fill="black" fill-opacity="0.62"/>
<path d="M57.5187 9.54265V18.6254C57.5187 19.5952 57.3221 20.4734 56.9289 21.2598C56.5357 22.033 55.9328 22.649 55.1202 23.1078C54.3207 23.5534 53.2984 23.7762 52.0533 23.7762C50.3101 23.7762 48.9798 23.3044 48.0624 22.3607C47.1581 21.4039 46.7059 20.1457 46.7059 18.5861V9.54265H48.4752V18.645C48.4752 19.7853 48.7767 20.67 49.3796 21.2991C49.9956 21.9282 50.9196 22.2427 52.1516 22.2427C53.4229 22.2427 54.3404 21.9085 54.9039 21.2401C55.4806 20.5586 55.7689 19.687 55.7689 18.6254V9.54265H57.5187ZM62.9928 23.5796H61.2234V9.54265H69.0676V11.0958H62.9928V16.0696H68.694V17.6227H62.9928V23.5796ZM79.8415 23.5796L78.1508 19.2348H72.5871L70.916 23.5796H69.127L74.612 9.48367H76.2045L81.6698 23.5796H79.8415ZM77.62 17.6621L76.0472 13.4156C76.0079 13.3107 75.9423 13.1207 75.8506 12.8455C75.7588 12.5702 75.6671 12.2884 75.5754 12.0001C75.4967 11.6987 75.4312 11.4693 75.3788 11.312C75.287 11.7183 75.1822 12.1181 75.0642 12.5112C74.9463 12.8913 74.848 13.1928 74.7693 13.4156L73.1769 17.6621H77.62ZM83.59 9.54265H87.6006C89.3568 9.54265 90.6806 9.80478 91.5718 10.329C92.4761 10.8402 92.9283 11.738 92.9283 13.0224C92.9283 13.8481 92.6989 14.5362 92.2402 15.0867C91.7815 15.624 91.1196 15.9713 90.2546 16.1286V16.2269C90.8444 16.3187 91.3752 16.489 91.847 16.7381C92.332 16.9871 92.7121 17.341 92.9873 17.7997C93.2625 18.2584 93.4001 18.8547 93.4001 19.5887C93.4001 20.86 92.9611 21.843 92.0829 22.5376C91.2179 23.2323 90.0318 23.5796 88.5246 23.5796H83.59V9.54265ZM85.3594 15.5192H87.9544C89.1602 15.5192 89.9859 15.3291 90.4315 14.949C90.8772 14.5558 91.1 13.9792 91.1 13.219C91.1 12.4457 90.8247 11.8952 90.2743 11.5676C89.7369 11.2268 88.8719 11.0564 87.6792 11.0564H85.3594V15.5192ZM85.3594 16.9936V22.0855H88.1904C89.4355 22.0855 90.3005 21.843 90.7854 21.3581C91.2704 20.8731 91.5128 20.2375 91.5128 19.4511C91.5128 18.7171 91.2572 18.1273 90.7461 17.6817C90.2481 17.223 89.3503 16.9936 88.0527 16.9936H85.3594ZM102.392 10.8992C100.885 10.8992 99.6989 11.4038 98.8339 12.413C97.9688 13.4221 97.5363 14.8049 97.5363 16.5611C97.5363 18.3043 97.9361 19.687 98.7356 20.7093C99.5482 21.7185 100.761 22.2231 102.373 22.2231C102.989 22.2231 103.572 22.1707 104.122 22.0658C104.673 21.961 105.21 21.8299 105.734 21.6726V23.2061C105.21 23.4027 104.666 23.5468 104.103 23.6386C103.552 23.7303 102.89 23.7762 102.117 23.7762C100.688 23.7762 99.4957 23.4813 98.539 22.8915C97.5822 22.3017 96.8614 21.4629 96.3764 20.3751C95.9046 19.2872 95.6687 18.0094 95.6687 16.5415C95.6687 15.126 95.9242 13.8809 96.4354 12.8061C96.9596 11.7183 97.7264 10.873 98.7356 10.2701C99.7448 9.65406 100.97 9.34606 102.412 9.34606C103.893 9.34606 105.184 9.62129 106.285 10.1718L105.577 11.6659C105.145 11.4693 104.66 11.2924 104.122 11.1351C103.598 10.9778 103.021 10.8992 102.392 10.8992Z" fill="black"/>
<path d="M57.5187 9.54265H57.7819V9.27935H57.5187V9.54265ZM56.9289 21.2598L57.1636 21.3791L57.1644 21.3775L56.9289 21.2598ZM55.1202 23.1078L55.2484 23.3377L55.2496 23.337L55.1202 23.1078ZM48.0624 22.3607L47.871 22.5416L47.8736 22.5442L48.0624 22.3607ZM46.7059 9.54265V9.27935H46.4426V9.54265H46.7059ZM48.4752 9.54265H48.7385V9.27935H48.4752V9.54265ZM49.3796 21.2991L49.1895 21.4813L49.1915 21.4833L49.3796 21.2991ZM54.9039 21.2401L54.7029 21.07L54.7026 21.0704L54.9039 21.2401ZM55.7689 9.54265V9.27935H55.5057V9.54265H55.7689ZM57.2554 9.54265V18.6254H57.7819V9.54265H57.2554ZM57.2554 18.6254C57.2554 19.5587 57.0665 20.3958 56.6934 21.142L57.1644 21.3775C57.5777 20.5509 57.7819 19.6318 57.7819 18.6254H57.2554ZM56.6942 21.1404C56.3263 21.864 55.7618 22.4432 54.9907 22.8785L55.2496 23.337C56.1038 22.8549 56.7451 22.2021 57.1636 21.3791L56.6942 21.1404ZM54.992 22.8778C54.2433 23.2951 53.269 23.5129 52.0533 23.5129V24.0395C53.3278 24.0395 54.3981 23.8117 55.2484 23.3377L54.992 22.8778ZM52.0533 23.5129C50.3573 23.5129 49.1045 23.0549 48.2512 22.1772L47.8736 22.5442C48.8552 23.5538 50.263 24.0395 52.0533 24.0395V23.5129ZM48.2537 22.1798C47.404 21.2808 46.9692 20.0917 46.9692 18.5861H46.4426C46.4426 20.1997 46.9121 21.5271 47.871 22.5416L48.2537 22.1798ZM46.9692 18.5861V9.54265H46.4426V18.5861H46.9692ZM46.7059 9.80595H48.4752V9.27935H46.7059V9.80595ZM48.2119 9.54265V18.645H48.7385V9.54265H48.2119ZM48.2119 18.645C48.2119 19.8315 48.5265 20.7895 49.1895 21.4813L49.5697 21.1169C49.0269 20.5505 48.7385 19.739 48.7385 18.645H48.2119ZM49.1915 21.4833C49.874 22.1804 50.8776 22.506 52.1516 22.506V21.9794C50.9616 21.9794 50.1171 21.676 49.5677 21.1149L49.1915 21.4833ZM52.1516 22.506C53.4643 22.506 54.4722 22.1606 55.1052 21.4098L54.7026 21.0704C54.2085 21.6564 53.3815 21.9794 52.1516 21.9794V22.506ZM55.1049 21.4102C55.7291 20.6725 56.0322 19.7369 56.0322 18.6254H55.5057C55.5057 19.6371 55.2321 20.4447 54.7029 21.07L55.1049 21.4102ZM56.0322 18.6254V9.54265H55.5057V18.6254H56.0322ZM55.7689 9.80595H57.5187V9.27935H55.7689V9.80595ZM62.9928 23.5796V23.8429H63.2561V23.5796H62.9928ZM61.2234 23.5796H60.9601V23.8429H61.2234V23.5796ZM61.2234 9.54265V9.27935H60.9601V9.54265H61.2234ZM69.0676 9.54265H69.3309V9.27935H69.0676V9.54265ZM69.0676 11.0958V11.3591H69.3309V11.0958H69.0676ZM62.9928 11.0958V10.8325H62.7295V11.0958H62.9928ZM62.9928 16.0696H62.7295V16.3329H62.9928V16.0696ZM68.694 16.0696H68.9573V15.8063H68.694V16.0696ZM68.694 17.6227V17.886H68.9573V17.6227H68.694ZM62.9928 17.6227V17.3594H62.7295V17.6227H62.9928ZM62.9928 23.3163H61.2234V23.8429H62.9928V23.3163ZM61.4867 23.5796V9.54265H60.9601V23.5796H61.4867ZM61.2234 9.80595H69.0676V9.27935H61.2234V9.80595ZM68.8043 9.54265V11.0958H69.3309V9.54265H68.8043ZM69.0676 10.8325H62.9928V11.3591H69.0676V10.8325ZM62.7295 11.0958V16.0696H63.2561V11.0958H62.7295ZM62.9928 16.3329H68.694V15.8063H62.9928V16.3329ZM68.4307 16.0696V17.6227H68.9573V16.0696H68.4307ZM68.694 17.3594H62.9928V17.886H68.694V17.3594ZM62.7295 17.6227V23.5796H63.2561V17.6227H62.7295ZM79.8415 23.5796L79.5961 23.6751L79.6614 23.8429H79.8415V23.5796ZM78.1508 19.2348L78.3961 19.1393L78.3308 18.9715H78.1508V19.2348ZM72.5871 19.2348V18.9715H72.4063L72.3414 19.1403L72.5871 19.2348ZM70.916 23.5796V23.8429H71.0969L71.1618 23.6741L70.916 23.5796ZM69.127 23.5796L68.8816 23.4841L68.742 23.8429H69.127V23.5796ZM74.612 9.48367V9.22038H74.432L74.3667 9.38819L74.612 9.48367ZM76.2045 9.48367L76.45 9.38849L76.3848 9.22038H76.2045V9.48367ZM81.6698 23.5796V23.8429H82.0543L81.9153 23.4844L81.6698 23.5796ZM77.62 17.6621V17.9254H77.9982L77.8669 17.5706L77.62 17.6621ZM76.0472 13.4156L76.2941 13.3241L76.2937 13.3231L76.0472 13.4156ZM75.8506 12.8455L75.6008 12.9287L75.6008 12.9287L75.8506 12.8455ZM75.5754 12.0001L75.3202 12.0667L75.3245 12.0799L75.5754 12.0001ZM75.3788 11.312L75.6285 11.2288L75.3299 10.3329L75.1219 11.254L75.3788 11.312ZM75.0642 12.5112L75.3157 12.5893L75.3164 12.5869L75.0642 12.5112ZM74.7693 13.4156L75.0159 13.5081L75.0176 13.5032L74.7693 13.4156ZM73.1769 17.6621L72.9304 17.5696L72.7969 17.9254H73.1769V17.6621ZM80.0869 23.4841L78.3961 19.1393L77.9054 19.3303L79.5961 23.6751L80.0869 23.4841ZM78.1508 18.9715H72.5871V19.4981H78.1508V18.9715ZM72.3414 19.1403L70.6703 23.4851L71.1618 23.6741L72.8328 19.3293L72.3414 19.1403ZM70.916 23.3163H69.127V23.8429H70.916V23.3163ZM69.3724 23.6751L74.8574 9.57916L74.3667 9.38819L68.8816 23.4841L69.3724 23.6751ZM74.612 9.74697H76.2045V9.22038H74.612V9.74697ZM75.959 9.57886L81.4243 23.6748L81.9153 23.4844L76.45 9.38849L75.959 9.57886ZM81.6698 23.3163H79.8415V23.8429H81.6698V23.3163ZM77.8669 17.5706L76.2941 13.3241L75.8003 13.507L77.373 17.7535L77.8669 17.5706ZM76.2937 13.3231C76.2563 13.2234 76.1922 13.0377 76.1004 12.7622L75.6008 12.9287C75.6925 13.2037 75.7594 13.398 75.8007 13.508L76.2937 13.3231ZM76.1004 12.7622C76.009 12.4882 75.9177 12.2075 75.8263 11.9203L75.3245 12.0799C75.4165 12.3694 75.5087 12.6523 75.6008 12.9287L76.1004 12.7622ZM75.8301 11.9336C75.7511 11.6305 75.6838 11.3944 75.6285 11.2288L75.129 11.3953C75.1786 11.5441 75.2424 11.7668 75.3206 12.0666L75.8301 11.9336ZM75.1219 11.254C75.0315 11.6545 74.9282 12.0483 74.812 12.4356L75.3164 12.5869C75.4361 12.1878 75.5425 11.7822 75.6356 11.37L75.1219 11.254ZM74.8127 12.4332C74.6952 12.8119 74.598 13.1097 74.521 13.328L75.0176 13.5032C75.0979 13.2758 75.1973 12.9707 75.3157 12.5893L74.8127 12.4332ZM74.5228 13.3231L72.9304 17.5696L73.4234 17.7545L75.0158 13.508L74.5228 13.3231ZM73.1769 17.9254H77.62V17.3988H73.1769V17.9254ZM83.59 9.54265V9.27935H83.3267V9.54265H83.59ZM91.5718 10.329L91.4383 10.556L91.4422 10.5583L91.5718 10.329ZM92.2402 15.0867L92.4405 15.2576L92.4425 15.2552L92.2402 15.0867ZM90.2546 16.1286L90.2075 15.8696L89.9913 15.9089V16.1286H90.2546ZM90.2546 16.2269H89.9913V16.4524L90.2141 16.4871L90.2546 16.2269ZM91.847 16.7381L91.7241 16.9709L91.7268 16.9723L91.847 16.7381ZM92.9873 17.7997L93.2131 17.6642L93.2131 17.6642L92.9873 17.7997ZM92.0829 22.5376L91.9196 22.3311L91.9181 22.3323L92.0829 22.5376ZM83.59 23.5796H83.3267V23.8429H83.59V23.5796ZM85.3594 15.5192H85.0961V15.7825H85.3594V15.5192ZM90.4315 14.949L90.6024 15.1494L90.6057 15.1465L90.4315 14.949ZM90.2743 11.5676L90.1332 11.79L90.1396 11.7938L90.2743 11.5676ZM85.3594 11.0564V10.7931H85.0961V11.0564H85.3594ZM85.3594 16.9936V16.7303H85.0961V16.9936H85.3594ZM85.3594 22.0855H85.0961V22.3488H85.3594V22.0855ZM90.7854 21.3581L90.9716 21.5442L90.9716 21.5442L90.7854 21.3581ZM90.7461 17.6817L90.5677 17.8755L90.5731 17.8802L90.7461 17.6817ZM83.59 9.80595H87.6006V9.27935H83.59V9.80595ZM87.6006 9.80595C89.3388 9.80595 90.6067 10.0668 91.4383 10.556L91.7053 10.1021C90.7544 9.54274 89.3749 9.27935 87.6006 9.27935V9.80595ZM91.4422 10.5583C92.2433 11.011 92.665 11.8066 92.665 13.0224H93.1916C93.1916 11.6694 92.709 10.6693 91.7014 10.0998L91.4422 10.5583ZM92.665 13.0224C92.665 13.7964 92.4513 14.422 92.038 14.9181L92.4425 15.2552C92.9466 14.6503 93.1916 13.8998 93.1916 13.0224H92.665ZM92.04 14.9157C91.6295 15.3965 91.0278 15.7204 90.2075 15.8696L90.3017 16.3877C91.2114 16.2223 91.9335 15.8515 92.4405 15.2576L92.04 14.9157ZM89.9913 16.1286V16.2269H90.5179V16.1286H89.9913ZM90.2141 16.4871C90.7785 16.5749 91.2809 16.737 91.7241 16.9709L91.9699 16.5052C91.4695 16.2411 90.9103 16.0624 90.2951 15.9667L90.2141 16.4871ZM91.7268 16.9723C92.1689 17.1993 92.512 17.5194 92.7615 17.9351L93.2131 17.6642C92.9121 17.1625 92.4951 16.7748 91.9673 16.5038L91.7268 16.9723ZM92.7615 17.9351C93.0047 18.3404 93.1368 18.8854 93.1368 19.5887H93.6634C93.6634 18.8241 93.5203 18.1763 93.2131 17.6642L92.7615 17.9351ZM93.1368 19.5887C93.1368 20.7919 92.7255 21.6936 91.9196 22.3311L92.2463 22.7441C93.1966 21.9924 93.6634 20.9282 93.6634 19.5887H93.1368ZM91.9181 22.3323C91.1141 22.9779 89.9932 23.3163 88.5246 23.3163V23.8429C90.0704 23.8429 91.3217 23.4866 92.2478 22.7429L91.9181 22.3323ZM88.5246 23.3163H83.59V23.8429H88.5246V23.3163ZM83.8533 23.5796V9.54265H83.3267V23.5796H83.8533ZM85.3594 15.7825H87.9544V15.2559H85.3594V15.7825ZM87.9544 15.7825C89.1674 15.7825 90.0793 15.5955 90.6024 15.1494L90.2607 14.7487C89.8925 15.0627 89.1531 15.2559 87.9544 15.2559V15.7825ZM90.6057 15.1465C91.123 14.6901 91.3633 14.0322 91.3633 13.219H90.8367C90.8367 13.9262 90.6313 14.4216 90.2573 14.7516L90.6057 15.1465ZM91.3633 13.219C91.3633 12.3754 91.0568 11.727 90.4089 11.3413L90.1396 11.7938C90.5927 12.0635 90.8367 12.516 90.8367 13.219H91.3633ZM90.4153 11.3452C89.8127 10.9631 88.8848 10.7931 87.6792 10.7931V11.3197C88.859 11.3197 89.6611 11.4905 90.1333 11.7899L90.4153 11.3452ZM87.6792 10.7931H85.3594V11.3197H87.6792V10.7931ZM85.0961 11.0564V15.5192H85.6227V11.0564H85.0961ZM85.0961 16.9936V22.0855H85.6227V16.9936H85.0961ZM85.3594 22.3488H88.1904V21.8222H85.3594V22.3488ZM88.1904 22.3488C89.4535 22.3488 90.4099 22.1059 90.9716 21.5442L90.5992 21.1719C90.1911 21.58 89.4174 21.8222 88.1904 21.8222V22.3488ZM90.9716 21.5442C91.5133 21.0026 91.7761 20.2962 91.7761 19.4511H91.2495C91.2495 20.1787 91.0275 20.7437 90.5992 21.1719L90.9716 21.5442ZM91.7761 19.4511C91.7761 18.6481 91.4927 17.9833 90.9191 17.4833L90.5731 17.8802C91.0217 18.2713 91.2495 18.7861 91.2495 19.4511H91.7761ZM90.9245 17.488C90.3494 16.9583 89.3633 16.7303 88.0527 16.7303V17.2569C89.3372 17.2569 90.1468 17.4877 90.5677 17.8754L90.9245 17.488ZM88.0527 16.7303H85.3594V17.2569H88.0527V16.7303ZM98.8339 12.413L99.0338 12.5843L99.0338 12.5843L98.8339 12.413ZM98.7356 20.7093L98.5281 20.8715L98.5305 20.8744L98.7356 20.7093ZM104.122 22.0658L104.073 21.8072L104.073 21.8072L104.122 22.0658ZM105.734 21.6726H105.998V21.3187L105.659 21.4204L105.734 21.6726ZM105.734 23.2061L105.827 23.4526L105.998 23.3885V23.2061H105.734ZM104.103 23.6386L104.06 23.3787L104.059 23.3789L104.103 23.6386ZM98.539 22.8915L98.6771 22.6674L98.6771 22.6674L98.539 22.8915ZM96.3764 20.3751L96.1348 20.4799L96.1359 20.4823L96.3764 20.3751ZM96.4354 12.8061L96.1982 12.6918L96.1976 12.6931L96.4354 12.8061ZM98.7356 10.2701L98.8706 10.4961L98.8727 10.4948L98.7356 10.2701ZM106.285 10.1718L106.523 10.2845L106.633 10.0515L106.403 9.93626L106.285 10.1718ZM105.577 11.6659L105.468 11.9056L105.704 12.0128L105.815 11.7786L105.577 11.6659ZM104.122 11.1351L104.047 11.3873L104.048 11.3878L104.122 11.1351ZM102.392 10.6359C100.82 10.6359 99.556 11.1658 98.634 12.2416L99.0338 12.5843C99.8417 11.6417 100.95 11.1625 102.392 11.1625V10.6359ZM98.634 12.2416C97.7164 13.312 97.273 14.7625 97.273 16.5611H97.7996C97.7996 14.8473 98.2213 13.5322 99.0338 12.5843L98.634 12.2416ZM97.273 16.5611C97.273 18.343 97.6818 19.7892 98.5282 20.8715L98.943 20.5471C98.1904 19.5848 97.7996 18.2656 97.7996 16.5611H97.273ZM98.5305 20.8744C99.4051 21.9606 100.702 22.4864 102.373 22.4864V21.9598C100.819 21.9598 99.6913 21.4764 98.9406 20.5442L98.5305 20.8744ZM102.373 22.4864C103.004 22.4864 103.603 22.4327 104.172 22.3245L104.073 21.8072C103.54 21.9086 102.974 21.9598 102.373 21.9598V22.4864ZM104.172 22.3245C104.731 22.2179 105.277 22.0847 105.81 21.9248L105.659 21.4204C105.143 21.575 104.615 21.704 104.073 21.8072L104.172 22.3245ZM105.471 21.6726V23.2061H105.998V21.6726H105.471ZM105.642 22.9595C105.134 23.1499 104.607 23.2897 104.06 23.3787L104.145 23.8984C104.725 23.804 105.286 23.6554 105.827 23.4526L105.642 22.9595ZM104.059 23.3789C103.527 23.4675 102.881 23.5129 102.117 23.5129V24.0395C102.9 24.0395 103.577 23.9931 104.146 23.8983L104.059 23.3789ZM102.117 23.5129C100.724 23.5129 99.5825 23.2255 98.6771 22.6674L98.4008 23.1156C99.409 23.7371 100.653 24.0395 102.117 24.0395V23.5129ZM98.6771 22.6674C97.7682 22.1071 97.0816 21.3104 96.6169 20.2679L96.1359 20.4823C96.6411 21.6154 97.3962 22.4964 98.4008 23.1156L98.6771 22.6674ZM96.618 20.2703C96.1635 19.2224 95.932 17.9817 95.932 16.5415H95.4054C95.4054 18.0371 95.6457 19.3521 96.1349 20.4799L96.618 20.2703ZM95.932 16.5415C95.932 15.1578 96.1817 13.9526 96.6732 12.9192L96.1976 12.6931C95.6668 13.8092 95.4054 15.0942 95.4054 16.5415H95.932ZM96.6726 12.9205C97.1751 11.8777 97.9069 11.0718 98.8706 10.4961L98.6005 10.044C97.5458 10.6741 96.7442 11.5589 96.1982 12.6918L96.6726 12.9205ZM98.8727 10.4948C99.8324 9.90903 101.008 9.60936 102.412 9.60936V9.08276C100.932 9.08276 99.6571 9.39908 98.5984 10.0453L98.8727 10.4948ZM102.412 9.60936C103.86 9.60936 105.109 9.87842 106.167 10.4073L106.403 9.93626C105.258 9.36416 103.926 9.08276 102.412 9.08276V9.60936ZM106.047 10.059L105.339 11.5532L105.815 11.7786L106.523 10.2845L106.047 10.059ZM105.686 11.4262C105.24 11.2236 104.744 11.0426 104.196 10.8824L104.048 11.3878C104.576 11.5422 105.049 11.715 105.468 11.9056L105.686 11.4262ZM104.198 10.8829C103.646 10.7172 103.043 10.6359 102.392 10.6359V11.1625C102.999 11.1625 103.55 11.2384 104.047 11.3873L104.198 10.8829Z" fill="black"/>
<g filter="url(#filter0_d)">
<path d="M6.98117 30.7801C4.69076 32.2145 1.70649 30.6316 1.60948 27.9308L0.743819 3.82937C0.646815 1.12862 3.50983 -0.664352 5.89725 0.602014L27.2025 11.903C29.59 13.1694 29.7112 16.5453 27.4208 17.9797L6.98117 30.7801Z" fill="#2E7EED"/>
</g>
</g>
<defs>
<filter id="filter0_d" x="0.0390833" y="0.187256" width="29.731" height="32.5373" filterUnits="userSpaceOnUse" color-interpolation-filters="sRGB">
<feFlood flood-opacity="0" result="BackgroundImageFix"/>
<feColorMatrix in="SourceAlpha" type="matrix" values="0 0 0 0 0 0 0 0 0 0 0 0 0 0 0 0 0 0 127 0"/>
<feOffset dy="0.702128"/>
<feGaussianBlur stdDeviation="0.351064"/>
<feColorMatrix type="matrix" values="0 0 0 0 0 0 0 0 0 0 0 0 0 0 0 0 0 0 0.25 0"/>
<feBlend mode="normal" in2="BackgroundImageFix" result="effect1_dropShadow"/>
<feBlend mode="normal" in="SourceGraphic" in2="effect1_dropShadow" result="shape"/>
</filter>
<clipPath id="clip0">
<rect width="149.904" height="33" fill="white"/>
</clipPath>
</defs>
</svg>