<svg width="854" height="188" viewBox="0 0 854 188" fill="none" xmlns="http://www.w3.org/2000/svg">
<g clip-path="url(#clip0)">
<path d="M111.426 175.354C98.3777 183.526 81.3764 174.507 80.8238 159.121L75.8921 21.8162C75.3395 6.43015 91.65 -3.78438 105.251 3.43007L226.627 67.8117C240.228 75.0262 240.918 94.2588 227.87 102.43L111.426 175.354Z" fill="white" fill-opacity="0.41"/>
<path d="M666.7 82C673.3 82 678.533 83.9333 682.4 87.8C686.333 91.6 688.3 97.1667 688.3 104.5V135H681.2V105.2C681.2 99.7333 679.833 95.5667 677.1 92.7C674.367 89.8333 670.467 88.4 665.4 88.4C659.733 88.4 655.233 90.1 651.9 93.5C648.633 96.8333 647 101.467 647 107.4V135H639.9V82.4H646.7V92.1C648.633 88.9 651.3 86.4333 654.7 84.7C658.167 82.9 662.167 82 666.7 82ZM730.271 129.2C733.538 129.2 736.538 128.633 739.271 127.5C742.071 126.3 744.438 124.567 746.371 122.3L750.371 126.9C748.038 129.7 745.138 131.833 741.671 133.3C738.204 134.767 734.371 135.5 730.171 135.5C724.771 135.5 719.971 134.367 715.771 132.1C711.571 129.767 708.304 126.567 705.971 122.5C703.638 118.433 702.471 113.833 702.471 108.7C702.471 103.567 703.571 98.9667 705.771 94.9C708.038 90.8333 711.138 87.6667 715.071 85.4C719.004 83.1333 723.471 82 728.471 82C733.138 82 737.338 83.0667 741.071 85.2C744.871 87.3333 747.871 90.3 750.071 94.1C752.338 97.9 753.538 102.233 753.671 107.1L710.471 115.5C711.804 119.767 714.204 123.133 717.671 125.6C721.204 128 725.404 129.2 730.271 129.2ZM728.471 88.1C724.804 88.1 721.504 88.9667 718.571 90.7C715.704 92.3667 713.438 94.7333 711.771 97.8C710.171 100.8 709.371 104.267 709.371 108.2C709.371 109.2 709.404 109.933 709.471 110.4L746.571 103.2C745.771 98.8 743.738 95.2 740.471 92.4C737.204 89.5333 733.204 88.1 728.471 88.1ZM800.158 135L783.458 113L766.658 135H758.658L779.458 108L759.658 82.4H767.658L783.458 103L799.258 82.4H807.058L787.258 108L808.258 135H800.158ZM845.976 131.8C844.642 133 843.009 133.933 841.076 134.6C839.142 135.2 837.109 135.5 834.976 135.5C830.042 135.5 826.242 134.167 823.576 131.5C820.909 128.833 819.576 125.067 819.576 120.2V70.9H826.676V82.4H842.576V88.4H826.676V119.8C826.676 122.933 827.442 125.333 828.976 127C830.509 128.6 832.742 129.4 835.676 129.4C838.876 129.4 841.476 128.5 843.476 126.7L845.976 131.8Z" fill="white" fill-opacity="0.62"/>
<path d="M327.695 55.0469V106.781C327.695 115.896 324.943 123.06 319.438 128.273C313.932 133.487 306.294 136.094 296.523 136.094C286.862 136.094 279.37 133.469 274.047 128.219C268.724 122.932 266.062 115.714 266.062 106.562V55.0469H276.18V106.891C276.18 113.417 277.911 118.466 281.375 122.039C284.875 125.612 290.125 127.398 297.125 127.398C303.724 127.398 308.792 125.63 312.328 122.094C315.901 118.557 317.688 113.453 317.688 106.781V55.0469H327.695ZM358.867 135H348.805V55.0469H393.484V63.9062H358.867V92.2344H391.352V101.039H358.867V135ZM456.047 135L446.422 110.227H414.703L405.188 135H395.016L426.242 54.7188H435.32L466.492 135H456.047ZM443.414 101.312L434.445 77.0859L430.617 65.1094C429.523 69.4844 428.375 73.4766 427.172 77.0859L418.094 101.312H443.414ZM477.539 55.0469H500.344C511.062 55.0469 518.792 56.651 523.531 59.8594C528.307 63.0312 530.695 68.026 530.695 74.8438C530.695 79.5833 529.401 83.5026 526.812 86.6016C524.224 89.6641 520.451 91.651 515.492 92.5625V93.1094C521.654 94.1667 526.174 96.2995 529.055 99.5078C531.971 102.716 533.43 106.964 533.43 112.25C533.43 119.396 530.987 124.974 526.102 128.984C521.216 132.995 514.398 135 505.648 135H477.539V55.0469ZM487.602 89.0625H502.367C508.638 89.0625 513.195 88.0599 516.039 86.0547C518.883 84.0495 520.305 80.6953 520.305 75.9922C520.305 71.6172 518.737 68.4635 515.602 66.5312C512.503 64.599 507.581 63.6328 500.836 63.6328H487.602V89.0625ZM487.602 97.4844V126.469H503.734C510.151 126.469 514.909 125.229 518.008 122.75C521.107 120.271 522.656 116.516 522.656 111.484C522.656 106.708 521.016 103.19 517.734 100.93C514.453 98.6328 509.531 97.4844 502.969 97.4844H487.602ZM584.617 62.7578C576.013 62.7578 569.25 65.638 564.328 71.3984C559.406 77.1589 556.945 85.0339 556.945 95.0234C556.945 105.341 559.333 113.307 564.109 118.922C568.885 124.5 575.685 127.289 584.508 127.289C590.195 127.289 596.594 126.232 603.703 124.117V132.867C600.312 134.107 597.049 134.945 593.914 135.383C590.779 135.857 587.169 136.094 583.086 136.094C571.31 136.094 562.232 132.521 555.852 125.375C549.508 118.193 546.336 108.039 546.336 94.9141C546.336 86.6745 547.849 79.4557 550.875 73.2578C553.938 67.0599 558.367 62.2839 564.164 58.9297C569.997 55.5755 576.852 53.8984 584.727 53.8984C593.185 53.8984 600.549 55.4661 606.82 58.6016L602.773 67.1328C596.393 64.2161 590.341 62.7578 584.617 62.7578Z" fill="white"/>
<path d="M327.695 55.0469H329.195V53.5469H327.695V55.0469ZM319.438 128.273L318.406 127.184L319.438 128.273ZM274.047 128.219L272.99 129.283L272.994 129.287L274.047 128.219ZM266.062 55.0469V53.5469H264.562V55.0469H266.062ZM276.18 55.0469H277.68V53.5469H276.18V55.0469ZM281.375 122.039L280.298 123.083L280.303 123.089L281.375 122.039ZM312.328 122.094L311.273 121.028L311.267 121.033L312.328 122.094ZM317.688 55.0469V53.5469H316.188V55.0469H317.688ZM326.195 55.0469V106.781H329.195V55.0469H326.195ZM326.195 106.781C326.195 115.574 323.553 122.31 318.406 127.184L320.469 129.363C326.333 123.809 329.195 116.218 329.195 106.781H326.195ZM318.406 127.184C313.253 132.064 306.025 134.594 296.523 134.594V137.594C306.563 137.594 314.612 134.91 320.469 129.363L318.406 127.184ZM296.523 134.594C287.136 134.594 280.067 132.05 275.1 127.151L272.994 129.287C278.672 134.888 286.588 137.594 296.523 137.594V134.594ZM275.104 127.154C270.125 122.209 267.562 115.408 267.562 106.562H264.562C264.562 116.02 267.323 123.655 272.99 129.283L275.104 127.154ZM267.562 106.562V55.0469H264.562V106.562H267.562ZM266.062 56.5469H276.18V53.5469H266.062V56.5469ZM274.68 55.0469V106.891H277.68V55.0469H274.68ZM274.68 106.891C274.68 113.681 276.487 119.152 280.298 123.083L282.452 120.995C279.336 117.781 277.68 113.152 277.68 106.891H274.68ZM280.303 123.089C284.183 127.049 289.886 128.898 297.125 128.898V125.898C290.364 125.898 285.567 124.175 282.447 120.989L280.303 123.089ZM297.125 128.898C303.99 128.898 309.49 127.053 313.389 123.154L311.267 121.033C308.093 124.207 303.458 125.898 297.125 125.898V128.898ZM313.383 123.16C317.325 119.259 319.188 113.718 319.188 106.781H316.188C316.188 113.188 314.477 117.856 311.273 121.028L313.383 123.16ZM319.188 106.781V55.0469H316.188V106.781H319.188ZM317.688 56.5469H327.695V53.5469H317.688V56.5469ZM358.867 135V136.5H360.367V135H358.867ZM348.805 135H347.305V136.5H348.805V135ZM348.805 55.0469V53.5469H347.305V55.0469H348.805ZM393.484 55.0469H394.984V53.5469H393.484V55.0469ZM393.484 63.9062V65.4062H394.984V63.9062H393.484ZM358.867 63.9062V62.4062H357.367V63.9062H358.867ZM358.867 92.2344H357.367V93.7344H358.867V92.2344ZM391.352 92.2344H392.852V90.7344H391.352V92.2344ZM391.352 101.039V102.539H392.852V101.039H391.352ZM358.867 101.039V99.5391H357.367V101.039H358.867ZM358.867 133.5H348.805V136.5H358.867V133.5ZM350.305 135V55.0469H347.305V135H350.305ZM348.805 56.5469H393.484V53.5469H348.805V56.5469ZM391.984 55.0469V63.9062H394.984V55.0469H391.984ZM393.484 62.4062H358.867V65.4062H393.484V62.4062ZM357.367 63.9062V92.2344H360.367V63.9062H357.367ZM358.867 93.7344H391.352V90.7344H358.867V93.7344ZM389.852 92.2344V101.039H392.852V92.2344H389.852ZM391.352 99.5391H358.867V102.539H391.352V99.5391ZM357.367 101.039V135H360.367V101.039H357.367ZM456.047 135L454.649 135.543L455.02 136.5H456.047V135ZM446.422 110.227L447.82 109.683L447.448 108.727H446.422V110.227ZM414.703 110.227V108.727H413.672L413.303 109.689L414.703 110.227ZM405.188 135V136.5H406.218L406.588 135.538L405.188 135ZM395.016 135L393.618 134.456L392.823 136.5H395.016V135ZM426.242 54.7188V53.2188H425.216L424.844 54.175L426.242 54.7188ZM435.32 54.7188L436.719 54.1758L436.347 53.2188H435.32V54.7188ZM466.492 135V136.5H468.684L467.89 134.457L466.492 135ZM443.414 101.312V102.812H445.569L444.821 100.792L443.414 101.312ZM434.445 77.0859L433.017 77.5426L433.027 77.5749L433.039 77.6067L434.445 77.0859ZM430.617 65.1094L432.046 64.6527L430.441 59.6306L429.162 64.7456L430.617 65.1094ZM427.172 77.0859L428.576 77.6123L428.586 77.5864L428.595 77.5603L427.172 77.0859ZM418.094 101.312L416.689 100.786L415.93 102.812H418.094V101.312ZM457.445 134.457L447.82 109.683L445.024 110.77L454.649 135.543L457.445 134.457ZM446.422 108.727H414.703V111.727H446.422V108.727ZM413.303 109.689L403.787 134.462L406.588 135.538L416.103 110.764L413.303 109.689ZM405.188 133.5H395.016V136.5H405.188V133.5ZM396.414 135.544L427.64 55.2625L424.844 54.175L393.618 134.456L396.414 135.544ZM426.242 56.2188H435.32V53.2188H426.242V56.2188ZM433.922 55.2617L465.094 135.543L467.89 134.457L436.719 54.1758L433.922 55.2617ZM466.492 133.5H456.047V136.5H466.492V133.5ZM444.821 100.792L435.852 76.5652L433.039 77.6067L442.007 101.833L444.821 100.792ZM435.874 76.6292L432.046 64.6527L429.188 65.5661L433.017 77.5426L435.874 76.6292ZM429.162 64.7456C428.076 69.0899 426.938 73.0446 425.749 76.6116L428.595 77.5603C429.812 73.9086 430.971 69.8788 432.072 65.4732L429.162 64.7456ZM425.767 76.5596L416.689 100.786L419.498 101.839L428.576 77.6123L425.767 76.5596ZM418.094 102.812H443.414V99.8125H418.094V102.812ZM477.539 55.0469V53.5469H476.039V55.0469H477.539ZM523.531 59.8594L522.69 61.1016L522.701 61.1089L523.531 59.8594ZM526.812 86.6016L527.958 87.5699L527.964 87.5632L526.812 86.6016ZM515.492 92.5625L515.221 91.0872L513.992 91.3131V92.5625H515.492ZM515.492 93.1094H513.992V94.3739L515.238 94.5878L515.492 93.1094ZM529.055 99.5078L527.938 100.51L527.945 100.517L529.055 99.5078ZM526.102 128.984L527.053 130.144L526.102 128.984ZM477.539 135H476.039V136.5H477.539V135ZM487.602 89.0625H486.102V90.5625H487.602V89.0625ZM515.602 66.5312L514.808 67.8041L514.815 67.8082L515.602 66.5312ZM487.602 63.6328V62.1328H486.102V63.6328H487.602ZM487.602 97.4844V95.9844H486.102V97.4844H487.602ZM487.602 126.469H486.102V127.969H487.602V126.469ZM518.008 122.75L517.071 121.579L518.008 122.75ZM517.734 100.93L516.874 102.159L516.883 102.165L517.734 100.93ZM477.539 56.5469H500.344V53.5469H477.539V56.5469ZM500.344 56.5469C510.986 56.5469 518.335 58.1535 522.69 61.1015L524.372 58.6172C519.248 55.1486 511.139 53.5469 500.344 53.5469V56.5469ZM522.701 61.1089C526.975 63.9472 529.195 68.4189 529.195 74.8438H532.195C532.195 67.6332 529.639 62.1153 524.361 58.6098L522.701 61.1089ZM529.195 74.8438C529.195 79.296 527.987 82.8562 525.661 85.64L527.964 87.5632C530.816 84.149 532.195 79.8707 532.195 74.8438H529.195ZM525.667 85.6333C523.355 88.3684 519.928 90.222 515.221 91.0872L515.763 94.0378C520.973 93.0801 525.093 90.9598 527.958 87.5699L525.667 85.6333ZM513.992 92.5625V93.1094H516.992V92.5625H513.992ZM515.238 94.5878C521.212 95.6128 525.366 97.6441 527.938 100.51L530.171 98.5058C526.983 94.9548 522.095 92.7205 515.746 91.631L515.238 94.5878ZM527.945 100.517C530.558 103.391 531.93 107.251 531.93 112.25H534.93C534.93 106.676 533.385 102.041 530.165 98.4988L527.945 100.517ZM531.93 112.25C531.93 119.013 529.64 124.139 525.15 127.825L527.053 130.144C532.334 125.809 534.93 119.779 534.93 112.25H531.93ZM525.15 127.825C520.62 131.544 514.184 133.5 505.648 133.5V136.5C514.613 136.5 521.813 134.446 527.053 130.144L525.15 127.825ZM505.648 133.5H477.539V136.5H505.648V133.5ZM479.039 135V55.0469H476.039V135H479.039ZM487.602 90.5625H502.367V87.5625H487.602V90.5625ZM502.367 90.5625C508.731 90.5625 513.674 89.5578 516.903 87.2806L515.175 84.8288C512.717 86.562 508.545 87.5625 502.367 87.5625V90.5625ZM516.903 87.2806C520.277 84.9015 521.805 80.9958 521.805 75.9922H518.805C518.805 80.3948 517.488 83.1975 515.175 84.8288L516.903 87.2806ZM521.805 75.9922C521.805 71.2111 520.056 67.5148 516.389 65.2543L514.815 67.8082C517.417 69.4123 518.805 72.0233 518.805 75.9922H521.805ZM516.395 65.2584C512.931 63.0981 507.659 62.1328 500.836 62.1328V65.1328C507.503 65.1328 512.075 66.0998 514.808 67.8041L516.395 65.2584ZM500.836 62.1328H487.602V65.1328H500.836V62.1328ZM486.102 63.6328V89.0625H489.102V63.6328H486.102ZM486.102 97.4844V126.469H489.102V97.4844H486.102ZM487.602 127.969H503.734V124.969H487.602V127.969ZM503.734 127.969C510.296 127.969 515.46 126.71 518.945 123.921L517.071 121.579C514.358 123.749 510.006 124.969 503.734 124.969V127.969ZM518.945 123.921C522.492 121.084 524.156 116.838 524.156 111.484H521.156C521.156 116.193 519.722 119.458 517.071 121.579L518.945 123.921ZM524.156 111.484C524.156 106.327 522.357 102.293 518.585 99.6944L516.883 102.165C519.674 104.087 521.156 107.09 521.156 111.484H524.156ZM518.595 99.7008C514.946 97.1471 509.66 95.9844 502.969 95.9844V98.9844C509.402 98.9844 513.96 100.119 516.874 102.159L518.595 99.7008ZM502.969 95.9844H487.602V98.9844H502.969V95.9844ZM564.328 71.3984L563.188 70.424L564.328 71.3984ZM564.109 118.922L562.967 119.894L562.97 119.897L564.109 118.922ZM603.703 124.117H605.203V122.106L603.275 122.679L603.703 124.117ZM603.703 132.867L604.218 134.276L605.203 133.916V132.867H603.703ZM593.914 135.383L593.707 133.897L593.698 133.898L593.69 133.9L593.914 135.383ZM555.852 125.375L554.727 126.368L554.733 126.374L555.852 125.375ZM550.875 73.2578L549.53 72.5933L549.527 72.5997L550.875 73.2578ZM564.164 58.9297L563.416 57.6293L563.413 57.6314L564.164 58.9297ZM606.82 58.6016L608.176 59.2444L608.805 57.917L607.491 57.2599L606.82 58.6016ZM602.773 67.1328L602.15 68.497L603.495 69.1119L604.129 67.7757L602.773 67.1328ZM584.617 61.2578C575.641 61.2578 568.435 64.2827 563.188 70.424L565.469 72.3728C570.065 66.9934 576.385 64.2578 584.617 64.2578V61.2578ZM563.188 70.424C557.968 76.5325 555.445 84.7919 555.445 95.0234H558.445C558.445 85.2758 560.844 77.7852 565.469 72.3728L563.188 70.424ZM555.445 95.0234C555.445 105.556 557.883 113.917 562.967 119.894L565.252 117.95C560.784 112.698 558.445 105.126 558.445 95.0234H555.445ZM562.97 119.897C568.089 125.876 575.344 128.789 584.508 128.789V125.789C576.026 125.789 569.682 123.124 565.249 117.946L562.97 119.897ZM584.508 128.789C590.376 128.789 596.922 127.699 604.131 125.555L603.275 122.679C596.265 124.765 590.014 125.789 584.508 125.789V128.789ZM602.203 124.117V132.867H605.203V124.117H602.203ZM603.188 131.458C599.883 132.667 596.724 133.476 593.707 133.897L594.121 136.868C597.375 136.414 600.742 135.547 604.218 134.276L603.188 131.458ZM593.69 133.9C590.646 134.36 587.114 134.594 583.086 134.594V137.594C587.224 137.594 590.911 137.354 594.138 136.866L593.69 133.9ZM583.086 134.594C571.631 134.594 563.002 131.132 556.97 124.376L554.733 126.374C561.461 133.91 570.989 137.594 583.086 137.594V134.594ZM556.976 124.382C550.951 117.561 547.836 107.809 547.836 94.9141H544.836C544.836 108.269 548.065 118.825 554.727 126.368L556.976 124.382ZM547.836 94.9141C547.836 86.8586 549.315 79.8728 552.223 73.9159L549.527 72.5997C546.383 79.0387 544.836 86.4903 544.836 94.9141H547.836ZM552.22 73.9223C555.156 67.9805 559.383 63.4291 564.915 60.228L563.413 57.6314C557.351 61.1386 552.719 66.1393 549.53 72.5933L552.22 73.9223ZM564.912 60.23C570.482 57.0275 577.069 55.3984 584.727 55.3984V52.3984C576.634 52.3984 569.513 54.1236 563.416 57.6293L564.912 60.23ZM584.727 55.3984C593 55.3984 600.126 56.9313 606.15 59.9432L607.491 57.2599C600.973 54.001 593.37 52.3984 584.727 52.3984V55.3984ZM605.465 57.9587L601.418 66.4899L604.129 67.7757L608.176 59.2444L605.465 57.9587ZM603.397 65.7686C596.864 62.7822 590.599 61.2578 584.617 61.2578V64.2578C590.083 64.2578 595.922 65.6501 602.15 68.497L603.397 65.7686Z" fill="white"/>
<g filter="url(#filter0_d)">
<path d="M39.7718 175.354C26.7234 183.526 9.72209 174.507 9.16946 159.121L4.23778 21.8162C3.68516 6.43015 19.9957 -3.78438 33.5967 3.43007L154.972 67.8117C168.573 75.0262 169.264 94.2588 156.216 102.43L39.7718 175.354Z" fill="white"/>
</g>
</g>
<defs>
<filter id="filter0_d" x="-62.5977" y="-5.95581" width="239.265" height="231.604" filterUnits="userSpaceOnUse" color-interpolation-filters="sRGB">
<feFlood flood-opacity="0" result="BackgroundImageFix"/>
<feColorMatrix in="SourceAlpha" type="matrix" values="0 0 0 0 0 0 0 0 0 0 0 0 0 0 0 0 0 0 127 0"/>
<feOffset dy="4"/>
<feGaussianBlur stdDeviation="2"/>
<feColorMatrix type="matrix" values="0 0 0 0 0 0 0 0 0 0 0 0 0 0 0 0 0 0 0.25 0"/>
<feBlend mode="normal" in2="BackgroundImageFix" result="effect1_dropShadow"/>
<feBlend mode="normal" in="SourceGraphic" in2="effect1_dropShadow" result="shape"/>
</filter>
<clipPath id="clip0">
<rect width="854" height="188" fill="white"/>
</clipPath>
</defs>
</svg>
