<svg width="224" height="68" viewBox="0 0 224 68" fill="none" xmlns="http://www.w3.org/2000/svg">
<path d="M19.2206 46.24C15.4126 46.24 12.1006 45.552 9.28456 44.176C6.46856 42.768 4.30856 40.784 2.80456 38.224C1.30056 35.664 0.548563 32.688 0.548563 29.296C0.548563 24.592 1.42856 20.416 3.18856 16.768C4.98056 13.12 7.39656 10.304 10.4366 8.32C13.4766 6.304 16.8526 5.296 20.5646 5.296C24.0206 5.296 26.6446 6.192 28.4366 7.984C30.2286 9.744 31.1246 12.08 31.1246 14.992C31.1246 16.944 30.7726 18.512 30.0686 19.696C29.3966 20.88 28.4206 21.472 27.1406 21.472C26.2446 21.472 25.5406 21.264 25.0286 20.848C24.5166 20.432 24.2606 19.824 24.2606 19.024C24.2606 18.736 24.3246 18.208 24.4526 17.44C24.6446 16.48 24.7406 15.712 24.7406 15.136C24.7406 12.224 23.1886 10.768 20.0846 10.768C17.9726 10.768 15.9566 11.456 14.0366 12.832C12.1166 14.208 10.5646 16.24 9.38056 18.928C8.19656 21.584 7.60456 24.752 7.60456 28.432C7.60456 32.272 8.67656 35.248 10.8206 37.36C12.9646 39.44 16.1326 40.48 20.3246 40.48C22.4046 40.48 24.5006 40.224 26.6126 39.712C28.7566 39.168 31.1246 38.352 33.7166 37.264C34.1966 37.072 34.5966 36.976 34.9166 36.976C35.4286 36.976 35.8126 37.168 36.0686 37.552C36.3246 37.936 36.4526 38.432 36.4526 39.04C36.4526 40.992 35.3966 42.432 33.2846 43.36C31.0126 44.352 28.6446 45.088 26.1806 45.568C23.7486 46.016 21.4286 46.24 19.2206 46.24ZM38.5908 46.24C36.6068 46.24 35.0228 45.52 33.8388 44.08C32.6548 42.64 32.0628 40.752 32.0628 38.416C32.0628 35.856 32.6548 33.44 33.8388 31.168C35.0228 28.864 36.5908 27.024 38.5428 25.648C40.5268 24.24 42.6228 23.536 44.8308 23.536C45.5348 23.536 45.9988 23.68 46.2228 23.968C46.4788 24.224 46.6868 24.704 46.8468 25.408C47.5188 25.28 48.2228 25.216 48.9588 25.216C50.5268 25.216 51.3108 25.776 51.3108 26.896C51.3108 27.568 51.0708 29.168 50.5908 31.696C49.8548 35.376 49.4868 37.936 49.4868 39.376C49.4868 39.856 49.5988 40.24 49.8228 40.528C50.0788 40.816 50.3988 40.96 50.7828 40.96C51.3908 40.96 52.1268 40.576 52.9908 39.808C53.8548 39.008 55.0228 37.728 56.4948 35.968C56.8788 35.52 57.3108 35.296 57.7908 35.296C58.2068 35.296 58.5268 35.488 58.7508 35.872C59.0068 36.256 59.1348 36.784 59.1348 37.456C59.1348 38.736 58.8308 39.728 58.2228 40.432C56.9108 42.064 55.5188 43.44 54.0468 44.56C52.5748 45.68 51.1508 46.24 49.7748 46.24C48.7188 46.24 47.7428 45.888 46.8468 45.184C45.9828 44.448 45.3268 43.456 44.8788 42.208C43.2148 44.896 41.1188 46.24 38.5908 46.24ZM40.3188 41.392C41.0228 41.392 41.6948 40.976 42.3348 40.144C42.9748 39.312 43.4388 38.208 43.7268 36.832L45.5028 28C44.1588 28.032 42.9108 28.544 41.7588 29.536C40.6388 30.496 39.7428 31.776 39.0708 33.376C38.3988 34.976 38.0628 36.672 38.0628 38.464C38.0628 39.456 38.2548 40.192 38.6388 40.672C39.0548 41.152 39.6148 41.392 40.3188 41.392ZM73.4257 35.296C73.8417 35.296 74.1617 35.488 74.3857 35.872C74.6417 36.256 74.7697 36.784 74.7697 37.456C74.7697 38.736 74.4657 39.728 73.8577 40.432C72.4817 42.128 70.9777 43.52 69.3457 44.608C67.7457 45.696 65.9217 46.24 63.8737 46.24C61.0577 46.24 58.9617 44.96 57.5857 42.4C56.2417 39.84 55.5697 36.528 55.5697 32.464C55.5697 28.56 56.0657 24.112 57.0577 19.12C58.0817 14.128 59.5697 9.84 61.5217 6.256C63.5057 2.672 65.8577 0.879997 68.5777 0.879997C70.1137 0.879997 71.3137 1.6 72.1777 3.04C73.0737 4.448 73.5217 6.48 73.5217 9.136C73.5217 12.944 72.4657 17.36 70.3537 22.384C68.2417 27.408 65.3777 32.384 61.7617 37.312C61.9857 38.624 62.3537 39.568 62.8657 40.144C63.3777 40.688 64.0497 40.96 64.8817 40.96C66.1937 40.96 67.3457 40.592 68.3377 39.856C69.3297 39.088 70.5937 37.792 72.1297 35.968C72.5137 35.52 72.9457 35.296 73.4257 35.296ZM67.5217 5.632C66.7857 5.632 65.9537 6.96 65.0257 9.616C64.0977 12.272 63.2817 15.568 62.5777 19.504C61.8737 23.44 61.4897 27.216 61.4257 30.832C63.6977 27.088 65.5057 23.344 66.8497 19.6C68.1937 15.824 68.8657 12.384 68.8657 9.28C68.8657 6.848 68.4177 5.632 67.5217 5.632ZM92.2979 35.296C92.7139 35.296 93.0339 35.488 93.2579 35.872C93.5139 36.256 93.6419 36.784 93.6419 37.456C93.6419 38.736 93.3379 39.728 92.7299 40.432C91.5459 41.872 89.8659 43.2 87.6899 44.416C85.5459 45.632 83.2419 46.24 80.7779 46.24C77.4179 46.24 74.8099 45.328 72.9539 43.504C71.0979 41.68 70.1699 39.184 70.1699 36.016C70.1699 33.808 70.6339 31.76 71.5619 29.872C72.4899 27.952 73.7699 26.432 75.4019 25.312C77.0659 24.192 78.9379 23.632 81.0179 23.632C82.8739 23.632 84.3619 24.192 85.4819 25.312C86.6019 26.4 87.1619 27.888 87.1619 29.776C87.1619 31.984 86.3619 33.888 84.7619 35.488C83.1939 37.056 80.5219 38.304 76.7459 39.232C77.5459 40.704 79.0659 41.44 81.3059 41.44C82.7459 41.44 84.3779 40.944 86.2019 39.952C88.0579 38.928 89.6579 37.6 91.0019 35.968C91.3859 35.52 91.8179 35.296 92.2979 35.296ZM80.2019 28.336C79.0179 28.336 78.0099 29.024 77.1779 30.4C76.3779 31.776 75.9779 33.44 75.9779 35.392V35.488C77.8659 35.04 79.3539 34.368 80.4419 33.472C81.5299 32.576 82.0739 31.536 82.0739 30.352C82.0739 29.744 81.8979 29.264 81.5459 28.912C81.2259 28.528 80.7779 28.336 80.2019 28.336ZM93.1417 46.24C91.9257 46.24 91.0617 45.6 90.5497 44.32C90.0697 43.04 89.8297 40.992 89.8297 38.176C89.8297 34.016 90.4217 30.064 91.6057 26.32C91.8937 25.392 92.3577 24.72 92.9977 24.304C93.6697 23.856 94.5977 23.632 95.7817 23.632C96.4217 23.632 96.8697 23.712 97.1257 23.872C97.3817 24.032 97.5097 24.336 97.5097 24.784C97.5097 25.296 97.2697 26.448 96.7897 28.24C96.4697 29.52 96.2137 30.64 96.0217 31.6C95.8297 32.56 95.6697 33.744 95.5417 35.152C96.5977 32.4 97.7817 30.16 99.0937 28.432C100.406 26.704 101.686 25.472 102.934 24.736C104.214 24 105.382 23.632 106.438 23.632C108.518 23.632 109.558 24.672 109.558 26.752C109.558 28 109.206 30.256 108.502 33.52C107.894 36.304 107.59 38.144 107.59 39.04C107.59 40.32 108.054 40.96 108.982 40.96C109.622 40.96 110.374 40.576 111.238 39.808C112.134 39.008 113.318 37.728 114.79 35.968C115.174 35.52 115.606 35.296 116.086 35.296C116.502 35.296 116.822 35.488 117.046 35.872C117.302 36.256 117.43 36.784 117.43 37.456C117.43 38.736 117.126 39.728 116.518 40.432C115.142 42.128 113.654 43.52 112.054 44.608C110.486 45.696 108.694 46.24 106.678 46.24C105.046 46.24 103.814 45.776 102.982 44.848C102.15 43.888 101.734 42.512 101.734 40.72C101.734 39.824 101.958 38.224 102.406 35.92C102.822 33.904 103.03 32.512 103.03 31.744C103.03 31.232 102.854 30.976 102.502 30.976C102.086 30.976 101.494 31.52 100.726 32.608C99.9897 33.664 99.2217 35.072 98.4217 36.832C97.6537 38.592 97.0297 40.448 96.5497 42.4C96.1977 43.904 95.7817 44.928 95.3017 45.472C94.8537 45.984 94.1337 46.24 93.1417 46.24ZM138.122 35.392C138.538 35.392 138.858 35.6 139.082 36.016C139.338 36.4 139.466 36.896 139.466 37.504C139.466 38.24 139.354 38.816 139.13 39.232C138.906 39.648 138.554 40.016 138.074 40.336C135.322 42.192 133.306 43.568 132.026 44.464L128.954 46.528C127.738 53.152 126.138 58.352 124.154 62.128C122.202 65.936 119.706 67.84 116.666 67.84C115.034 67.84 113.706 67.328 112.682 66.304C111.658 65.312 111.146 64 111.146 62.368C111.146 60.096 112.042 57.648 113.834 55.024C115.626 52.432 118.986 49.232 123.914 45.424L124.202 43.552C123.658 44.416 122.938 45.088 122.042 45.568C121.178 46.016 120.314 46.24 119.45 46.24C117.466 46.24 115.882 45.52 114.698 44.08C113.514 42.64 112.922 40.752 112.922 38.416C112.922 35.856 113.514 33.44 114.698 31.168C115.882 28.864 117.45 27.024 119.402 25.648C121.386 24.24 123.482 23.536 125.69 23.536C126.394 23.536 126.858 23.68 127.082 23.968C127.338 24.224 127.546 24.704 127.706 25.408C128.314 25.28 129.018 25.216 129.818 25.216C130.618 25.216 131.178 25.344 131.498 25.6C131.85 25.824 132.026 26.288 132.026 26.992C132.026 27.376 132.01 27.68 131.978 27.904C131.85 28.896 131.45 31.408 130.778 35.44C130.65 36.208 130.506 37.056 130.346 37.984C130.218 38.88 130.074 39.84 129.914 40.864C132.378 38.944 134.746 37.248 137.018 35.776C137.434 35.52 137.802 35.392 138.122 35.392ZM121.178 41.392C121.914 41.392 122.618 40.944 123.29 40.048C123.962 39.152 124.442 37.872 124.73 36.208L126.266 28C124.954 28.032 123.738 28.544 122.618 29.536C121.498 30.496 120.602 31.776 119.93 33.376C119.258 34.976 118.922 36.672 118.922 38.464C118.922 39.456 119.114 40.192 119.498 40.672C119.914 41.152 120.474 41.392 121.178 41.392ZM117.194 63.184C117.994 63.184 118.89 62.224 119.882 60.304C120.906 58.384 121.882 55.328 122.81 51.136C120.346 53.248 118.57 55.152 117.482 56.848C116.394 58.544 115.85 60.032 115.85 61.312C115.85 61.856 115.946 62.304 116.138 62.656C116.362 63.008 116.714 63.184 117.194 63.184ZM139.407 46.24C138.191 46.24 137.327 45.6 136.815 44.32C136.335 43.04 136.095 40.992 136.095 38.176C136.095 34.016 136.687 30.064 137.871 26.32C138.159 25.392 138.623 24.72 139.263 24.304C139.935 23.856 140.863 23.632 142.047 23.632C142.687 23.632 143.135 23.712 143.391 23.872C143.647 24.032 143.775 24.336 143.775 24.784C143.775 25.296 143.535 26.448 143.055 28.24C142.735 29.52 142.479 30.64 142.287 31.6C142.095 32.56 141.935 33.744 141.807 35.152C142.863 32.4 144.047 30.16 145.359 28.432C146.671 26.704 147.951 25.472 149.199 24.736C150.479 24 151.647 23.632 152.703 23.632C154.783 23.632 155.823 24.672 155.823 26.752C155.823 27.168 155.679 28.176 155.391 29.776C155.135 31.056 155.007 31.856 155.007 32.176C155.007 33.296 155.407 33.856 156.207 33.856C157.103 33.856 158.255 33.152 159.663 31.744C160.079 31.328 160.511 31.12 160.959 31.12C161.375 31.12 161.695 31.312 161.919 31.696C162.175 32.048 162.303 32.528 162.303 33.136C162.303 34.32 161.983 35.248 161.343 35.92C160.447 36.848 159.391 37.648 158.175 38.32C156.991 38.96 155.727 39.28 154.383 39.28C152.687 39.28 151.391 38.848 150.495 37.984C149.631 37.12 149.199 35.952 149.199 34.48C149.199 34 149.247 33.52 149.343 33.04C149.407 32.4 149.439 31.968 149.439 31.744C149.439 31.232 149.263 30.976 148.911 30.976C148.431 30.976 147.791 31.52 146.991 32.608C146.223 33.664 145.455 35.072 144.687 36.832C143.919 38.592 143.295 40.448 142.815 42.4C142.463 43.904 142.047 44.928 141.567 45.472C141.119 45.984 140.399 46.24 139.407 46.24ZM163.747 46.24C161.763 46.24 160.179 45.52 158.995 44.08C157.811 42.64 157.219 40.752 157.219 38.416C157.219 35.856 157.811 33.44 158.995 31.168C160.179 28.864 161.747 27.024 163.699 25.648C165.683 24.24 167.779 23.536 169.987 23.536C170.691 23.536 171.155 23.68 171.379 23.968C171.635 24.224 171.843 24.704 172.003 25.408C172.675 25.28 173.379 25.216 174.115 25.216C175.683 25.216 176.467 25.776 176.467 26.896C176.467 27.568 176.227 29.168 175.747 31.696C175.011 35.376 174.643 37.936 174.643 39.376C174.643 39.856 174.755 40.24 174.979 40.528C175.235 40.816 175.555 40.96 175.939 40.96C176.547 40.96 177.283 40.576 178.147 39.808C179.011 39.008 180.179 37.728 181.651 35.968C182.035 35.52 182.467 35.296 182.947 35.296C183.363 35.296 183.683 35.488 183.907 35.872C184.163 36.256 184.291 36.784 184.291 37.456C184.291 38.736 183.987 39.728 183.379 40.432C182.067 42.064 180.675 43.44 179.203 44.56C177.731 45.68 176.307 46.24 174.931 46.24C173.875 46.24 172.899 45.888 172.003 45.184C171.139 44.448 170.483 43.456 170.035 42.208C168.371 44.896 166.275 46.24 163.747 46.24ZM165.475 41.392C166.179 41.392 166.851 40.976 167.491 40.144C168.131 39.312 168.595 38.208 168.883 36.832L170.659 28C169.315 28.032 168.067 28.544 166.915 29.536C165.795 30.496 164.899 31.776 164.227 33.376C163.555 34.976 163.219 36.672 163.219 38.464C163.219 39.456 163.411 40.192 163.795 40.672C164.211 41.152 164.771 41.392 165.475 41.392ZM207.654 35.296C208.07 35.296 208.39 35.488 208.614 35.872C208.87 36.256 208.998 36.784 208.998 37.456C208.998 38.736 208.694 39.728 208.086 40.432C206.774 42.032 205.334 43.408 203.766 44.56C202.198 45.68 200.646 46.24 199.11 46.24C196.678 46.24 194.822 44.816 193.542 41.968C192.198 43.664 191.014 44.8 189.99 45.376C188.998 45.952 187.83 46.24 186.486 46.24C184.534 46.24 182.918 45.52 181.638 44.08C180.39 42.608 179.766 40.704 179.766 38.368C179.766 35.808 180.31 33.44 181.398 31.264C182.486 29.056 183.974 27.264 185.862 25.888C187.782 24.48 189.926 23.648 192.294 23.392C192.902 17.184 194.054 11.888 195.75 7.504C197.478 3.088 199.734 0.879997 202.518 0.879997C203.894 0.879997 205.03 1.504 205.926 2.752C206.854 4 207.318 5.888 207.318 8.416C207.318 12 206.438 16.192 204.678 20.992C202.918 25.792 200.566 30.72 197.622 35.776C197.75 37.632 198.022 38.96 198.438 39.76C198.886 40.56 199.446 40.96 200.118 40.96C200.982 40.96 201.862 40.576 202.758 39.808C203.654 39.04 204.854 37.76 206.358 35.968C206.742 35.52 207.174 35.296 207.654 35.296ZM201.99 5.584C201.382 5.584 200.774 6.672 200.166 8.848C199.558 10.992 199.03 13.808 198.582 17.296C198.166 20.784 197.862 24.432 197.67 28.24C201.254 20.432 203.046 14.16 203.046 9.424C203.046 8.208 202.934 7.264 202.71 6.592C202.518 5.92 202.278 5.584 201.99 5.584ZM188.166 41.392C188.774 41.392 189.382 41.152 189.99 40.672C190.598 40.16 191.366 39.232 192.294 37.888C191.974 36.16 191.814 34.224 191.814 32.08C191.814 31.312 191.846 30.064 191.91 28.336C190.15 28.88 188.678 30.064 187.494 31.888C186.342 33.68 185.766 35.68 185.766 37.888C185.766 40.224 186.566 41.392 188.166 41.392ZM222.277 36.736C222.693 36.736 223.013 36.928 223.237 37.312C223.493 37.696 223.621 38.224 223.621 38.896C223.621 40.048 223.349 41.04 222.805 41.872C221.909 43.248 220.725 44.32 219.253 45.088C217.813 45.856 216.085 46.24 214.069 46.24C210.997 46.24 208.613 45.328 206.917 43.504C205.221 41.648 204.373 39.152 204.373 36.016C204.373 33.808 204.837 31.76 205.765 29.872C206.693 27.952 207.973 26.432 209.605 25.312C211.269 24.192 213.141 23.632 215.221 23.632C217.077 23.632 218.565 24.192 219.685 25.312C220.805 26.4 221.365 27.888 221.365 29.776C221.365 31.984 220.565 33.888 218.965 35.488C217.397 37.056 214.709 38.304 210.901 39.232C211.669 40.704 212.965 41.44 214.789 41.44C216.101 41.44 217.173 41.136 218.005 40.528C218.869 39.92 219.861 38.896 220.981 37.456C221.365 36.976 221.797 36.736 222.277 36.736ZM214.405 28.336C213.221 28.336 212.213 29.024 211.381 30.4C210.581 31.776 210.181 33.44 210.181 35.392V35.488C212.069 35.04 213.557 34.368 214.645 33.472C215.733 32.576 216.277 31.536 216.277 30.352C216.277 29.744 216.101 29.264 215.749 28.912C215.429 28.528 214.981 28.336 214.405 28.336Z" fill="#FFCC00"/>
</svg>
